<svg xmlns="http://www.w3.org/2000/svg" width="1000.000000pt" height="1000.000000pt" viewBox="0 0 1000.000000 1000.000000" preserveAspectRatio="xMidYMid meet"><g transform="translate(0.000000,1000.000000) scale(0.100000,-0.100000)" fill="#000000" stroke="none"><path d="M0 5000 l0 -5000 5000 0 5000 0 0 5000 0 5000 -5000 0 -5000 0 0 -5000z m5625 4023 c28 -9 86 -28 130 -43 106 -36 219 -54 303 -48 67 5 101 19 148 60 20 18 54 16 54 -2 0 -5 -9 -28 -19 -52 -30 -70 -144 -159 -247 -192 -55 -18 -54 -18 -291 10 -196 23 -283 8 -397 -67 -41 -27 -63 -36 -70 -29 -17 17 42 68 124 108 74 37 76 37 195 36 66 -1 160 -6 209 -13 120 -16 196 -16 242 0 37 12 190 117 182 124 -2 2 -22 -2 -43 -10 -93 -33 -300 -9 -441 51 -71 31 -169 46 -260 41 -79 -3 -100 -9 -149 -36 -70 -37 -77 -38 -73 -8 4 32 96 79 173 87 75 9 165 2 230 -17z m-440 -139 c0 -44 -2 -140 -4 -214 -2 -74 -3 -151 -2 -171 l1 -36 88 -6 c81 -6 179 -34 210 -60 8 -6 50 -10 105 -8 97 2 173 -16 242 -59 18 -11 39 -20 47 -20 8 0 33 -9 56 -20 28 -14 61 -20 107 -20 47 0 86 -7 133 -25 113 -43 251 -118 311 -167 31 -27 79 -63 106 -82 82 -56 120 -88 197 -172 93 -102 182 -276 223 -434 14 -58 30 -121 35 -141 15 -56 23 -397 12 -459 -48 -253 -47 -248 -110 -384 -76 -167 -200 -373 -310 -519 -29 -37 -78 -105 -109 -150 -31 -45 -59 -84 -62 -87 -3 -3 -42 -45 -86 -95 -43 -49 -106 -115 -139 -145 -34 -30 -80 -75 -104 -100 -24 -25 -81 -83 -127 -130 -47 -47 -85 -91 -85 -97 0 -5 -17 -22 -38 -36 -21 -13 -58 -46 -83 -73 -24 -26 -58 -62 -75 -79 -18 -17 -38 -45 -47 -61 -8 -16 -27 -42 -41 -59 -56 -64 -130 -234 -146 -335 -8 -49 -23 -73 -52 -82 -9 -3 -38 -98 -59 -193 -6 -27 -15 -68 -20 -90 -19 -83 -39 -201 -39 -227 0 -34 -11 -41 -37 -23 -20 14 -20 15 -2 72 10 32 25 94 33 138 23 123 67 278 85 298 15 18 14 18 -19 12 -142 -25 -397 -27 -485 -3 -50 14 -50 14 -79 89 -69 181 -97 236 -149 295 -12 15 -16 29 -12 47 9 35 31 52 95 71 30 10 64 21 75 26 53 22 259 50 367 49 200 -2 388 -42 388 -83 0 -14 -6 -17 -26 -13 -31 6 -32 4 -84 -198 -38 -146 -44 -223 -10 -111 10 31 26 73 36 94 10 20 35 75 55 122 28 62 44 86 59 88 25 4 59 62 36 62 -8 0 -30 9 -48 20 -85 50 -379 77 -542 51 -201 -34 -405 -99 -414 -133 -7 -27 -28 -22 -41 10 -14 34 -60 82 -241 252 -78 74 -193 184 -254 243 -61 59 -114 111 -118 115 -21 19 -182 219 -248 307 -264 350 -440 677 -465 863 -4 26 -13 85 -22 131 -16 92 -21 264 -10 379 10 105 38 202 98 338 86 195 149 282 344 476 102 103 117 113 222 164 62 30 118 54 124 54 6 0 28 13 48 29 39 31 193 111 213 111 7 0 45 13 83 29 87 37 196 62 289 67 39 2 98 11 131 21 40 11 98 17 172 17 104 1 113 -1 137 -23 16 -16 24 -32 21 -45 -4 -23 -16 -515 -20 -891 -2 -132 -6 -337 -10 -455 -3 -129 -1 -273 5 -360 7 -94 8 -210 3 -330 -7 -170 -5 -378 13 -995 4 -126 7 -251 7 -277 0 -56 16 -62 62 -26 l27 21 -26 14 c-26 13 -38 49 -13 40 13 -5 67 23 67 34 0 4 -16 13 -35 19 -42 14 -44 30 -8 52 l28 17 -27 10 c-15 5 -32 19 -38 30 -9 17 -6 25 20 48 l31 27 -28 21 c-25 21 -26 24 -14 54 12 28 11 34 -4 51 -17 19 -17 23 10 70 14 23 13 26 -11 46 -28 23 -27 31 9 71 l20 23 -27 25 c-22 20 -25 28 -16 44 6 11 18 24 27 29 20 12 9 32 -18 32 -30 0 -22 25 18 58 l37 29 -37 14 c-20 7 -39 19 -42 27 -7 20 11 49 45 69 36 21 34 38 -6 38 -31 0 -40 18 -30 61 5 19 11 24 26 19 12 -4 36 3 61 19 l42 24 -37 16 c-20 8 -43 13 -51 10 -8 -4 -17 1 -21 9 -7 20 13 58 29 55 15 -3 77 22 77 31 0 12 -69 41 -84 35 -21 -8 -28 11 -28 79 0 46 4 64 17 73 16 12 15 15 -9 36 -18 16 -23 27 -17 37 7 11 16 9 50 -9 40 -23 41 -23 76 -4 19 10 35 22 35 27 0 4 -34 23 -75 42 -68 32 -95 56 -95 84 0 6 8 11 19 11 10 0 24 7 31 15 10 13 8 19 -14 36 -22 17 -26 28 -24 58 2 26 7 35 19 33 9 -1 24 7 34 18 17 19 17 20 -11 31 -52 20 -59 26 -62 47 -3 16 7 26 40 43 24 12 45 23 47 25 8 7 -33 33 -51 34 -31 0 -20 37 18 60 38 24 35 42 -8 45 -39 3 -36 41 6 66 20 12 36 24 36 28 0 13 -24 31 -40 31 -12 0 -15 8 -12 35 5 41 17 52 38 34 12 -10 20 -8 42 8 15 11 27 26 27 34 0 22 -39 22 -60 -1 -10 -11 -24 -20 -32 -20 -20 0 -15 38 7 52 26 17 25 20 -10 41 -34 21 -41 65 -14 88 21 18 101 65 137 81 33 15 34 21 2 42 -25 17 -27 16 -84 -34 -31 -27 -61 -50 -64 -50 -4 0 -7 13 -7 29 0 32 14 51 60 78 36 21 36 24 9 41 -18 11 -24 11 -38 -2 -32 -29 -37 -19 -30 61 6 56 13 81 28 96 20 21 20 21 1 53 -20 31 -20 32 0 78 16 35 26 46 43 46 13 0 33 7 45 16 18 13 21 19 11 30 -16 19 -25 18 -63 -11 -40 -30 -52 -31 -59 -4 -6 21 23 59 44 59 5 0 7 5 3 11 -3 6 -16 8 -29 5 -21 -5 -23 -2 -27 37 -2 23 -1 44 4 45 4 2 8 21 8 42 0 54 29 80 89 81 25 0 56 2 69 5 12 2 22 -1 22 -7 0 -14 30 -38 48 -39 9 0 11 7 6 22 -6 19 -4 21 7 12 8 -5 33 -23 57 -38 23 -16 40 -31 38 -34 -3 -2 -18 5 -34 17 -52 37 -94 20 -46 -18 34 -27 21 -27 -22 0 -31 19 -35 19 -64 4 -36 -19 -37 -29 -8 -49 30 -22 66 -20 106 4 l33 20 30 -20 c36 -26 39 -39 3 -15 -25 16 -28 16 -65 -1 -22 -9 -39 -19 -39 -22 0 -3 12 -19 28 -35 l27 -30 -43 28 c-36 24 -46 26 -68 17 -34 -16 -42 -41 -18 -59 18 -13 31 -13 94 3 24 6 24 5 -5 -20 l-30 -26 25 -20 c19 -16 34 -19 63 -15 40 6 47 -1 20 -20 -14 -11 -11 -15 25 -35 23 -13 42 -27 42 -32 0 -14 -14 -9 -54 18 -36 25 -41 26 -77 14 -46 -15 -59 -8 -35 19 16 18 15 19 -19 40 l-36 21 -29 -22 c-17 -12 -30 -25 -30 -28 0 -9 71 -74 102 -93 19 -12 37 -15 55 -11 25 7 27 6 14 -10 -8 -9 -12 -18 -10 -19 46 -35 67 -44 98 -39 24 3 32 1 27 -7 -4 -6 -14 -11 -22 -11 -17 0 -18 -12 -2 -28 9 -9 9 -12 1 -12 -7 0 -15 5 -18 11 -5 7 -15 5 -31 -5 -41 -28 -74 -15 -39 14 22 18 19 28 -17 50 -32 19 -32 19 -70 -2 -21 -12 -38 -25 -38 -29 0 -10 58 -60 113 -98 38 -26 50 -29 71 -21 17 6 26 6 26 0 0 -6 -7 -10 -15 -10 -8 0 -15 -7 -15 -16 0 -8 -4 -12 -10 -9 -11 7 -90 -31 -90 -44 0 -4 16 -20 37 -34 29 -20 40 -24 55 -16 11 6 22 8 25 5 3 -3 -6 -11 -21 -17 -23 -11 -32 -8 -77 19 l-50 32 -35 -26 c-19 -15 -34 -30 -34 -34 0 -5 12 -18 26 -29 20 -15 31 -18 44 -11 11 6 21 6 24 1 4 -5 0 -11 -6 -14 -8 -3 0 -16 22 -35 l35 -31 -35 11 c-19 6 -43 15 -54 20 -15 8 -25 4 -48 -20 l-30 -29 44 -32 c63 -47 80 -48 139 -11 28 17 53 29 56 26 7 -6 -47 -54 -69 -61 -27 -9 -22 -19 20 -42 36 -21 37 -21 72 -3 51 28 71 24 35 -6 -40 -34 -102 -74 -115 -74 -17 0 -11 21 12 40 21 17 21 18 2 27 -49 26 -78 24 -116 -8 -21 -17 -38 -35 -38 -40 0 -6 25 -21 55 -34 30 -14 74 -37 96 -52 39 -26 40 -27 18 -35 -13 -5 -38 -18 -57 -30 l-34 -21 23 -18 c27 -21 22 -24 -17 -9 -23 9 -33 7 -65 -16 -44 -30 -49 -48 -19 -64 18 -9 38 -3 123 39 129 64 184 72 67 9 -25 -13 -65 -36 -89 -52 l-43 -28 33 -21 c19 -11 50 -26 69 -33 24 -9 29 -13 14 -14 -12 0 -46 13 -76 29 l-55 30 -37 -25 c-20 -14 -36 -29 -36 -33 0 -5 14 -14 31 -22 31 -12 36 -12 102 16 27 11 20 -10 -8 -23 -33 -15 -32 -28 5 -47 27 -14 33 -14 61 0 17 9 33 14 36 11 3 -3 -6 -11 -21 -17 -14 -7 -26 -16 -26 -21 0 -4 -3 -7 -7 -6 -10 3 -93 -52 -93 -62 0 -9 104 -62 116 -58 12 3 114 -55 114 -64 0 -12 -19 -9 -85 13 -62 21 -62 21 -94 1 l-32 -20 33 -20 c31 -19 101 -51 141 -65 10 -4 16 -10 13 -15 -8 -13 -52 -7 -80 11 -14 9 -32 17 -39 17 -8 0 -35 9 -61 21 l-46 20 -30 -23 c-16 -13 -29 -28 -29 -34 -1 -13 21 -24 50 -24 10 0 19 -4 19 -10 0 -5 20 -21 45 -36 37 -21 53 -25 83 -19 36 6 37 6 17 -12 -30 -27 -85 -56 -93 -49 -3 4 -1 16 6 26 11 18 8 21 -21 34 -65 27 -74 27 -111 5 -20 -11 -36 -25 -36 -29 0 -12 68 -50 90 -50 10 0 20 -4 22 -8 4 -10 76 -52 89 -52 6 0 22 9 36 20 14 11 31 20 37 20 6 0 -4 -9 -22 -20 -39 -24 -37 -41 6 -54 18 -5 32 -13 32 -17 0 -13 -5 -11 -60 12 -46 20 -49 20 -74 4 -16 -11 -26 -13 -26 -6 0 6 5 11 10 11 6 0 10 6 10 13 0 7 -20 19 -45 26 -43 13 -47 12 -80 -10 -19 -13 -35 -28 -35 -32 0 -11 69 -39 80 -32 5 3 14 -3 19 -14 16 -28 14 -32 -11 -26 -16 4 -36 -4 -65 -25 -24 -18 -43 -35 -43 -39 0 -4 10 -13 23 -20 18 -10 30 -9 60 4 20 8 37 22 37 30 0 21 18 19 112 -16 155 -57 171 -71 33 -30 -38 12 -80 21 -92 21 -24 0 -93 -37 -93 -50 0 -5 33 -25 73 -45 66 -34 53 -41 -18 -10 -94 41 -94 41 -127 8 l-31 -31 27 -18 c26 -16 29 -16 63 0 38 18 53 16 28 -4 -39 -32 12 -74 63 -51 22 10 25 10 15 0 -19 -19 -16 -28 12 -39 14 -5 25 -14 25 -20 0 -6 -15 -4 -37 6 -21 8 -62 25 -91 36 l-54 20 -24 -23 c-19 -17 -21 -25 -12 -36 7 -9 21 -12 36 -8 19 5 23 3 19 -8 -3 -9 7 -20 28 -30 31 -15 38 -15 70 -2 39 17 47 6 13 -18 -23 -15 -23 -15 17 -33 49 -23 49 -23 43 -29 -2 -3 -30 4 -61 14 l-57 20 -28 -24 -27 -24 35 -14 c25 -11 40 -12 54 -5 16 8 18 7 13 -6 -5 -11 5 -21 33 -36 45 -23 71 -25 88 -8 6 6 14 9 17 6 3 -3 -5 -12 -17 -20 -30 -20 -72 -33 -65 -21 4 6 -18 18 -48 28 l-54 19 -26 -24 c-14 -13 -25 -27 -25 -31 0 -16 57 -38 80 -32 16 4 21 3 16 -6 -5 -7 5 -17 28 -26 38 -16 50 -31 16 -20 -44 14 -94 13 -117 -2 -31 -20 -29 -27 10 -48 27 -14 38 -15 55 -6 29 15 37 14 21 -5 -11 -14 -10 -18 6 -30 24 -18 35 -18 65 3 l25 17 -20 -23 c-17 -20 -26 -22 -60 -16 -55 9 -67 9 -89 0 -15 -7 -17 -5 -12 12 5 16 0 23 -24 33 -27 11 -33 10 -51 -6 -27 -25 -15 -34 106 -84 55 -23 89 -39 76 -36 -21 4 -55 -13 -105 -55 -5 -5 7 -16 28 -25 20 -10 36 -21 36 -26 0 -13 -17 -9 -54 13 -29 17 -38 18 -55 7 -12 -7 -21 -16 -21 -19 0 -14 50 -39 64 -33 10 4 16 1 16 -8 0 -14 59 -48 84 -48 13 0 111 195 122 245 4 17 17 54 31 84 13 29 30 77 38 106 7 29 20 66 28 82 39 74 105 287 143 458 46 208 99 508 113 645 6 52 15 141 21 198 13 122 14 400 1 451 -5 20 -12 77 -15 127 -11 157 -45 281 -138 499 -59 140 -97 199 -206 325 -61 71 -281 128 -349 92 -31 -17 -39 -15 -58 15 -16 24 -18 55 -18 282 1 228 2 256 18 267 11 8 25 10 38 5 20 -8 22 -16 22 -87z m201 31 c-19 -15 -46 -20 -46 -10 0 6 40 24 55 24 6 0 1 -6 -9 -14z m-106 -60 c-13 -14 -31 -25 -39 -25 -11 1 -4 11 18 30 41 35 55 31 21 -5z m178 25 c28 -1 -16 -29 -64 -41 -22 -6 -64 -28 -93 -50 -53 -40 -71 -47 -71 -28 0 20 71 77 118 94 26 10 51 22 57 27 5 4 16 6 23 3 8 -3 21 -5 30 -5z m82 -780 c25 -16 42 -30 39 -30 -9 0 -99 51 -99 56 0 10 18 2 60 -26z m101 -181 c19 -16 20 -18 4 -10 -34 17 -51 31 -39 31 7 0 22 -9 35 -21z m14 -193 c17 -14 14 -14 -17 1 -21 9 -38 21 -38 25 0 10 25 -2 55 -26z m25 -66 c-24 -15 -36 -11 -14 4 10 8 21 12 24 10 2 -3 -2 -9 -10 -14z m-78 -24 c20 6 21 5 6 -10 -18 -17 -63 -23 -53 -6 3 6 1 10 -4 10 -6 0 -11 5 -11 10 0 7 7 7 20 0 12 -6 31 -8 42 -4z m-45 -107 c19 -12 32 -23 29 -26 -5 -6 -63 24 -71 37 -10 16 5 12 42 -11z m163 -23 c0 -2 -7 -7 -16 -10 -8 -3 -12 -2 -9 4 6 10 25 14 25 6z m-104 -61 c-11 -8 -24 -15 -30 -15 -5 0 -1 7 10 15 10 8 24 14 29 14 6 0 1 -6 -9 -14z m8 -216 c33 -19 36 -19 66 -4 18 9 33 15 35 13 2 -2 -32 -23 -77 -46 -45 -23 -83 -40 -85 -38 -3 3 13 14 36 26 23 11 41 23 41 26 0 3 -13 10 -30 15 -16 6 -30 15 -30 20 0 13 4 12 44 -12z m86 -264 c0 -7 -58 -35 -72 -35 -7 1 3 9 22 20 35 19 50 24 50 15z m-110 -50 c0 -8 -58 -35 -75 -35 -25 0 -17 18 13 28 29 11 62 15 62 7z m5 -100 c22 -14 35 -25 29 -25 -21 0 -84 30 -84 40 0 15 11 12 55 -15z m-46 -101 c14 -12 -19 -1 -35 12 -18 14 -18 14 6 3 14 -6 27 -13 29 -15z m166 17 c-12 -10 -75 -32 -75 -26 0 6 60 33 75 34 6 1 6 -2 0 -8z m-515 -166 c-7 -8 -16 -12 -21 -9 -13 8 -1 24 18 24 13 0 13 -3 3 -15z m470 -39 c0 -2 -9 -2 -20 1 -11 3 -20 9 -20 15 0 5 9 4 20 -2 11 -6 20 -12 20 -14z m-35 -186 c-3 -5 -12 -10 -18 -10 -7 0 -6 4 3 10 19 12 23 12 15 0z m-124 -205 c-77 -36 -91 -41 -91 -27 0 11 119 61 145 61 11 0 -13 -15 -54 -34z m139 -124 c0 -8 -54 -32 -69 -31 -4 1 46 30 67 39 1 1 2 -3 2 -8z m-164 -80 c-3 -4 13 -16 36 -24 23 -9 39 -19 36 -22 -6 -7 -71 16 -79 28 -4 5 -16 5 -30 -3 l-24 -11 24 20 c23 21 47 29 37 12z m4 -105 c0 -2 -12 -12 -27 -21 l-28 -18 19 21 c17 20 36 29 36 18z m15 -56 c8 -13 -15 -13 -35 0 -12 8 -11 10 7 10 12 0 25 -4 28 -10z m-598 -1534 c7 -43 25 -124 42 -180 39 -131 48 -195 30 -207 -23 -15 -26 -11 -37 54 -6 34 -20 105 -32 157 -19 84 -29 135 -47 233 -5 24 -3 28 13 25 15 -3 21 -18 31 -82z m237 40 c-4 -11 -7 -111 -7 -222 l-1 -201 37 -66 c23 -43 41 -91 47 -134 20 -124 28 -270 19 -359 -11 -113 -38 -277 -47 -285 -13 -11 -235 10 -307 28 -68 18 -69 18 -30 21 22 2 63 -1 90 -8 68 -16 207 -10 213 9 3 10 0 12 -11 8 -11 -4 -7 7 12 33 38 53 56 192 47 364 -13 246 -24 286 -93 350 -31 28 -35 36 -25 49 14 17 17 128 9 312 -6 124 -3 137 34 128 15 -4 18 -11 13 -27z m-79 -452 c34 -16 85 -81 85 -108 0 -8 -9 -16 -20 -18 -31 -5 -28 -22 6 -28 24 -4 29 -10 30 -35 0 -17 4 -65 8 -108 5 -54 4 -87 -4 -107 -12 -29 -12 -29 -83 -24 -168 12 -177 22 -129 139 26 64 71 125 92 125 25 0 33 15 16 30 -11 8 -25 9 -52 1 -34 -9 -39 -8 -66 19 -16 17 -35 30 -43 30 -11 0 -30 29 -23 35 21 17 118 65 131 65 11 0 34 -7 52 -16z m221 -23 c17 -10 45 -22 62 -26 66 -14 175 -103 130 -106 -7 0 -31 -2 -53 -4 -66 -7 -68 -7 -130 10 -60 17 -60 17 -90 81 l-31 64 41 0 c22 0 54 -9 71 -19z m-418 -57 c12 -4 22 -12 22 -19 0 -7 7 -16 16 -19 8 -3 24 -25 34 -49 19 -44 19 -44 -1 -103 -11 -32 -27 -69 -35 -81 -16 -26 -80 -41 -97 -24 -14 14 -37 14 -37 0 0 -6 12 -25 26 -42 22 -26 25 -38 21 -75 -3 -30 -13 -53 -30 -70 -26 -25 -26 -25 -69 -9 -75 29 -197 153 -234 238 -19 42 23 79 89 79 25 0 36 5 40 19 5 19 128 122 175 147 30 15 46 17 80 8z m-828 -69 c14 -8 41 -14 60 -15 55 0 101 -17 155 -55 28 -19 62 -40 78 -46 24 -10 27 -17 28 -57 1 -28 4 -37 6 -22 7 39 20 48 56 41 23 -5 33 -13 35 -30 5 -36 89 -166 126 -198 19 -15 51 -39 71 -53 36 -25 36 -26 32 -82 -3 -31 -10 -64 -16 -75 -8 -14 -11 -6 -11 42 -1 52 -3 57 -12 35 -37 -85 -52 -111 -84 -144 -48 -49 -60 -45 -28 9 14 25 22 45 17 45 -25 0 -150 -199 -163 -260 -8 -40 -34 -31 -38 13 -4 45 -14 47 -43 7 -29 -38 -41 -29 -33 23 l7 42 -32 -29 c-30 -29 -31 -29 -31 -7 0 33 17 59 51 76 16 9 38 24 47 33 10 9 30 25 45 35 33 21 87 102 87 129 0 10 16 47 35 82 44 80 47 122 6 84 -11 -11 -11 -9 -2 9 15 30 14 32 -11 26 -13 -3 -31 -15 -40 -27 -23 -28 -32 -15 -13 20 23 44 18 49 -19 20 -49 -37 -68 -35 -44 4 9 14 10 22 1 31 -8 8 -14 5 -23 -12 -7 -13 -21 -34 -32 -46 l-20 -21 41 -27 c47 -29 81 -78 81 -116 0 -43 -13 -42 -28 3 -8 24 -19 49 -25 57 -20 24 -118 81 -185 108 -40 16 -88 45 -118 72 -28 25 -63 54 -78 64 -14 10 -26 25 -26 33 0 11 10 8 43 -12 23 -15 53 -37 67 -49 35 -32 79 -52 120 -56 28 -3 35 0 38 15 4 16 0 18 -28 13 -38 -8 -94 18 -136 63 -16 16 -34 30 -40 30 -5 0 -23 14 -39 30 -21 22 -38 30 -62 30 l-33 0 21 43 c42 84 82 105 139 72z m1267 -26 c58 -22 106 -93 119 -178 5 -29 1 -40 -18 -58 -20 -19 -31 -21 -84 -16 l-61 6 -7 91 c-4 50 -9 108 -13 129 -5 33 -3 37 15 37 11 0 33 -5 49 -11z m287 -32 c13 -9 37 -34 52 -54 15 -21 39 -50 52 -65 l24 -26 -25 -16 c-15 -10 -47 -17 -82 -17 -32 -1 -73 -7 -91 -15 -55 -23 -60 -20 -73 53 -7 36 -19 75 -27 87 -17 25 -18 63 -1 69 26 11 146 0 171 -16z m206 -209 c57 -62 23 -112 -93 -136 -39 -9 -99 -16 -132 -16 -56 -1 -60 1 -63 23 -12 83 25 117 139 127 41 4 81 10 89 15 24 13 38 10 60 -13z m-873 -29 c15 -6 70 -11 122 -10 57 1 99 -3 107 -10 20 -16 19 -113 -1 -129 -22 -18 -304 -5 -324 15 -12 12 -9 23 20 79 19 36 37 66 41 66 4 0 19 -5 35 -11z m553 -39 c6 -25 -2 -106 -12 -115 -3 -3 -52 -7 -109 -8 l-104 -2 4 70 c2 39 8 73 15 77 6 4 54 7 106 5 91 -2 94 -3 100 -27z m695 -168 c70 -4 105 -15 62 -20 -12 -2 -74 -3 -137 -3 -99 -1 -124 2 -179 23 -69 27 -97 58 -80 90 5 10 16 15 24 12 9 -4 15 0 15 9 0 11 32 -3 113 -46 102 -56 119 -62 182 -65z m-352 43 c16 -47 74 -126 130 -176 61 -55 59 -69 -18 -127 -35 -26 -57 -53 -74 -89 -14 -29 -28 -53 -33 -53 -4 0 -8 21 -8 46 0 53 -19 57 -32 5 -11 -42 -28 -30 -28 20 0 45 -5 47 -37 18 -21 -21 -23 -21 -29 -4 -4 10 1 41 11 70 9 29 14 58 11 64 -4 6 -35 25 -69 42 -47 24 -69 30 -96 26 -20 -4 -79 -13 -131 -21 -109 -18 -200 -21 -200 -6 0 6 28 10 63 10 34 0 91 5 127 11 174 27 174 27 202 13 15 -8 35 -14 45 -14 9 0 34 -17 55 -37 31 -30 40 -35 50 -24 11 10 8 16 -12 29 -41 28 -85 70 -79 76 3 3 21 -5 39 -19 19 -14 43 -25 54 -25 17 0 14 5 -14 21 -47 28 -98 78 -116 112 -20 37 -10 34 43 -13 68 -60 81 -55 33 12 -16 22 -30 45 -30 49 0 10 34 16 89 15 40 -1 45 -4 54 -31z m-453 -41 c0 -3 -13 -23 -30 -44 -16 -21 -30 -42 -30 -48 0 -5 -11 -12 -25 -14 -14 -3 -25 -1 -25 3 0 5 3 9 8 9 4 0 23 23 42 50 30 42 60 64 60 44z m39 -43 c-23 -31 -47 -46 -58 -36 -3 4 12 21 34 40 47 39 55 38 24 -4z m-509 11 c0 -5 -11 -19 -25 -32 -28 -26 -33 -16 -9 18 15 22 34 30 34 14z m150 -21 c-12 -23 -58 -61 -73 -61 -6 0 7 18 28 40 42 43 62 52 45 21z m1155 2 c-42 -23 -123 -43 -174 -43 -49 0 -121 19 -121 32 0 11 13 10 47 -3 43 -17 142 -12 198 10 60 24 92 26 50 4z m-1440 -86 c-68 -26 -262 -128 -288 -151 -16 -15 -37 -46 -48 -71 -11 -25 -24 -45 -29 -45 -5 0 5 28 23 62 25 47 47 72 97 110 36 26 79 52 95 57 17 5 55 19 85 30 30 11 64 20 75 20 15 -1 12 -4 -10 -12z m-1371 -627 c34 -13 38 -69 5 -77 -11 -3 -25 -17 -30 -30 -11 -30 -12 -220 -1 -227 5 -3 33 -2 64 1 l56 6 6 47 c6 42 10 48 34 53 42 9 50 -8 43 -93 l-6 -74 -40 -8 c-21 -5 -98 -7 -170 -6 l-130 3 -3 27 c-3 22 2 30 22 38 26 9 26 10 26 122 0 120 -4 134 -35 139 -14 3 -21 13 -23 36 -4 37 4 41 98 46 30 2 56 4 57 5 1 1 13 -2 27 -8z m1364 -13 c18 -14 15 -66 -4 -74 -19 -7 -12 -58 17 -115 10 -20 19 -45 19 -54 0 -34 27 6 51 76 19 58 22 74 11 90 -6 11 -12 33 -12 50 0 40 35 57 87 44 30 -7 38 -15 46 -43 7 -30 5 -37 -20 -60 -28 -26 -52 -82 -93 -217 -19 -65 -24 -72 -54 -81 -19 -6 -38 -8 -44 -4 -6 3 -15 32 -21 63 -9 53 -35 118 -46 118 -2 0 -14 -33 -26 -72 -25 -86 -36 -99 -80 -101 -32 -2 -33 -1 -62 78 -77 208 -90 240 -109 253 -11 8 -18 23 -16 35 3 20 9 22 73 22 60 0 70 -3 73 -18 2 -10 -4 -27 -14 -38 -18 -20 -18 -23 6 -87 42 -120 51 -137 61 -121 23 37 53 176 39 184 -13 8 -13 68 1 82 12 12 98 5 117 -10z m-1928 3 c23 -7 36 -7 38 0 2 5 14 10 27 10 20 0 26 -8 35 -40 14 -52 1 -80 -36 -76 -17 2 -32 13 -41 30 -19 36 -70 37 -79 1 -3 -14 -3 -33 1 -42 6 -16 9 -14 21 10 8 15 17 27 20 27 3 0 22 -13 42 -29 24 -18 48 -28 67 -27 30 1 30 2 30 59 0 35 4 56 10 54 15 -5 18 -106 4 -123 -18 -22 -86 -12 -105 15 -18 25 -49 28 -58 5 -4 -11 4 -19 29 -30 19 -7 38 -14 43 -14 11 0 67 -60 81 -87 20 -40 13 -77 -21 -110 -41 -39 -77 -45 -140 -25 -40 13 -51 14 -57 3 -7 -11 -14 -11 -37 1 -25 11 -29 20 -30 53 -1 48 10 65 42 65 16 0 25 -7 29 -23 9 -34 59 -59 90 -45 53 24 34 83 -39 120 -73 37 -95 57 -106 99 -10 34 -8 44 9 73 32 51 68 64 131 46z m644 -16 c18 -47 -1 -91 -46 -107 -15 -5 -18 -20 -18 -97 0 -53 -4 -90 -10 -90 -11 0 -13 23 -10 125 2 76 7 87 42 90 21 2 23 7 21 49 -3 45 9 62 21 30z m626 -3 c41 -21 100 -101 110 -147 11 -48 -6 -120 -37 -160 -75 -96 -245 -112 -320 -31 -60 66 -67 178 -17 264 46 80 183 118 264 74z m710 -31 c0 -41 -24 -75 -43 -63 -8 5 -6 9 6 11 15 3 18 12 17 45 -2 56 -2 59 10 52 6 -3 10 -24 10 -45z m991 24 c34 -17 59 -56 59 -93 0 -22 -9 -37 -36 -59 -48 -40 -36 -59 16 -25 36 24 40 31 40 67 0 30 3 37 10 26 16 -25 11 -69 -9 -87 -31 -29 -46 -40 -59 -44 -8 -3 -3 -21 15 -56 20 -39 33 -53 49 -53 12 0 27 -7 34 -15 21 -26 -5 -44 -61 -43 -53 2 -51 -1 -125 139 -40 75 -83 55 -84 -38 0 -26 4 -33 20 -33 16 0 20 -7 20 -30 l0 -30 -81 0 -80 0 3 33 c2 24 8 33 26 35 25 4 27 14 23 127 -3 97 -9 122 -32 128 -28 7 -34 35 -14 57 16 18 27 19 129 14 61 -4 123 -12 137 -20z m497 16 c60 0 63 -1 60 -22 -2 -14 -12 -24 -28 -28 l-25 -6 2 -119 c1 -66 2 -126 2 -132 1 -7 12 -13 26 -13 20 0 25 -5 25 -25 0 -13 -8 -29 -18 -34 -21 -11 -169 -17 -179 -7 -14 13 12 60 37 66 25 6 25 7 25 110 0 86 -3 105 -15 106 -34 2 -40 4 -40 14 0 5 10 9 22 7 14 -1 23 4 26 16 2 12 -3 17 -17 17 -15 0 -21 6 -21 23 0 30 10 39 35 33 11 -3 48 -6 83 -6z m488 -6 c23 -15 26 -15 43 0 15 14 24 15 40 6 17 -9 21 -20 21 -60 0 -46 -2 -50 -25 -50 -13 0 -33 9 -43 20 -25 27 -74 36 -91 16 -22 -27 -7 -48 59 -83 85 -45 101 -62 107 -115 4 -37 1 -49 -22 -76 -38 -46 -119 -66 -149 -37 -11 11 -21 13 -40 5 -14 -5 -27 -8 -27 -7 -1 1 -2 26 -4 55 -2 58 14 84 40 62 8 -6 17 -21 20 -31 9 -27 50 -42 76 -29 41 23 15 85 -51 118 -19 9 -47 35 -62 57 -24 35 -26 45 -18 80 9 40 39 71 75 78 11 2 21 5 23 6 1 0 14 -6 28 -15z m742 -32 c4 -49 -11 -74 -42 -70 -16 2 -21 10 -21 33 0 29 -1 30 -55 33 -68 4 -90 -11 -97 -65 -6 -48 4 -57 62 -58 36 0 40 -3 40 -25 0 -23 -4 -25 -47 -28 -28 -2 -48 -8 -49 -15 0 -7 -3 -33 -5 -60 -5 -58 3 -63 84 -51 48 8 57 12 58 30 2 32 13 44 37 40 12 -3 26 -5 30 -5 4 -1 7 -25 5 -53 l-3 -53 -45 -6 c-25 -3 -99 -6 -165 -5 l-120 1 0 25 c0 18 6 26 23 28 25 4 25 5 23 131 -2 105 -4 111 -30 111 -21 0 -47 27 -37 37 3 4 12 1 18 -5 13 -13 58 -16 58 -4 0 4 -14 13 -31 19 -21 8 -30 17 -27 30 3 14 15 18 67 20 35 2 66 5 68 7 2 2 48 3 101 3 l97 -2 3 -43z m-2938 14 c0 -36 -10 -56 -28 -56 -12 0 -13 3 -4 12 7 7 12 25 12 40 0 15 5 28 10 28 6 0 10 -11 10 -24z m430 -25 c0 -30 -6 -42 -23 -54 -18 -11 -35 -49 -66 -143 -60 -181 -60 -181 -116 -180 -43 1 -61 19 -20 21 62 4 59 1 102 113 22 59 46 127 53 151 7 28 18 45 31 48 15 4 19 14 19 44 0 22 5 39 10 39 6 0 10 -17 10 -39z m1400 0 c0 -31 -16 -51 -41 -51 -25 0 -31 -29 -24 -114 5 -49 3 -76 -4 -80 -7 -5 -11 8 -12 36 0 24 -1 71 -3 106 -2 65 3 76 39 77 14 0 19 6 17 19 -5 25 6 49 18 41 5 -3 10 -19 10 -34z m1152 28 c3 -10 -8 -90 -18 -126 -5 -18 -69 -16 -84 2 -12 14 -8 15 27 9 36 -5 41 -4 46 17 4 13 7 43 7 67 0 39 13 57 22 31z m-637 -61 c-9 -67 -20 -80 -62 -76 -44 4 -47 22 -3 22 31 1 35 4 42 36 4 19 5 43 2 53 -4 11 0 17 11 17 15 0 16 -7 10 -52z m-2499 -16 c-10 -10 -39 25 -31 38 5 8 12 5 22 -10 8 -12 12 -24 9 -28z m-232 22 c9 -24 7 -28 -9 -14 -17 14 -20 30 -6 30 5 0 12 -7 15 -16z m3210 -3 c25 -9 10 -19 -26 -17 -24 1 -28 -2 -28 -26 0 -15 -4 -28 -10 -28 -15 0 -12 67 3 73 17 8 39 7 61 -2z m-610 -17 c9 -3 16 -12 16 -20 0 -16 -26 -19 -35 -4 -3 5 -12 7 -20 3 -8 -3 -15 -1 -15 5 0 17 29 26 54 16z m-2547 -82 c17 -68 -36 -189 -104 -234 -52 -35 -135 -52 -192 -39 -46 10 -91 36 -91 52 0 6 14 0 31 -12 27 -19 45 -22 110 -22 83 0 94 5 176 81 49 46 65 136 38 217 l-7 20 17 -20 c9 -11 18 -30 22 -43z m-634 -139 c-4 -72 -9 -91 -26 -104 -18 -15 -81 -22 -307 -34 -41 -2 -70 8 -70 24 0 3 80 7 177 9 107 2 182 7 190 14 7 6 13 31 13 57 0 61 11 121 21 121 4 0 5 -39 2 -87z m3822 69 c-3 -3 -24 -8 -48 -11 -40 -6 -42 -8 -48 -46 -7 -44 -9 -44 -13 0 -4 48 9 63 57 67 44 3 62 0 52 -10z m-1730 -2 c3 -5 2 -10 -4 -10 -6 0 -14 -15 -19 -32 -7 -24 -11 -29 -16 -17 -8 18 9 69 23 69 5 0 13 -4 16 -10z m-1027 -105 l-33 -76 -44 3 c-58 4 -66 25 -9 24 46 -1 45 -2 89 99 12 28 24 45 26 38 2 -6 -11 -46 -29 -88z m2252 39 c0 -11 -7 -29 -16 -40 -15 -18 -15 -18 -10 6 3 14 6 39 6 55 0 23 3 27 10 15 5 -8 10 -24 10 -36z m-3947 -56 c-38 -66 -112 -95 -179 -72 -27 9 -40 10 -45 2 -9 -14 -91 0 -86 15 2 7 14 10 27 9 13 -2 33 2 45 8 18 10 28 9 53 -4 55 -28 99 -21 143 23 24 24 39 48 39 63 0 35 14 45 18 14 2 -15 -5 -41 -15 -58z m4582 -2 c-4 -31 -12 -56 -17 -56 -6 0 -7 7 -4 16 3 9 6 39 6 67 0 37 3 48 11 40 7 -7 8 -31 4 -67z m-1167 -12 c-4 -67 -23 -62 -21 6 1 30 2 57 2 60 1 2 6 -1 12 -7 5 -5 9 -32 7 -59z m-681 1 c-2 -26 -7 -49 -10 -52 -9 -9 -98 -13 -144 -7 -28 4 -43 11 -43 21 0 10 6 12 23 7 33 -12 130 -12 145 -1 6 5 12 25 12 43 0 19 5 34 11 34 8 0 10 -15 6 -45z m243 -9 c0 -48 -17 -57 -96 -54 -92 4 -94 23 -2 23 l73 0 3 33 c4 42 22 41 22 -2z m925 -16 c-27 -29 -72 -39 -160 -36 -99 5 -95 4 -95 16 0 5 12 9 28 10 15 0 38 0 52 0 14 1 48 -1 77 -2 40 -2 58 2 80 18 33 26 44 22 18 -6z m446 -10 c88 0 150 -4 154 -10 6 -10 -50 -13 -213 -12 -80 1 -112 11 -112 35 0 7 4 7 12 -1 8 -8 58 -12 159 -12z m-971 -8 c0 -5 -30 -12 -67 -15 -102 -10 -133 -9 -133 6 0 8 28 13 100 15 56 2 100 -1 100 -6z m1165 -2 c-3 -5 -10 -10 -16 -10 -5 0 -9 5 -9 10 0 6 7 10 16 10 8 0 12 -4 9 -10z m-3302 -321 c17 -22 22 -55 11 -84 -9 -22 -56 -45 -93 -45 -29 0 -30 -2 -33 -47 -2 -35 -7 -48 -18 -48 -12 0 -16 20 -18 105 -4 136 0 148 41 152 46 5 89 -8 110 -33z m158 -74 c-3 -128 -4 -139 -24 -143 -19 -4 -21 27 -10 166 5 66 9 82 21 80 12 -2 14 -22 13 -103z m269 92 c0 -7 -11 -29 -25 -49 -19 -29 -65 -128 -65 -141 0 -2 20 -2 45 -2 48 2 58 -3 47 -22 -7 -12 -136 -22 -146 -12 -4 3 14 46 39 95 53 105 55 115 18 108 -32 -5 -59 8 -49 25 10 16 136 15 136 -2z m260 3 c13 -8 11 -17 -12 -62 -14 -29 -36 -73 -48 -97 l-22 -44 51 7 c42 6 52 4 58 -10 9 -24 -15 -34 -89 -34 -50 0 -68 4 -68 13 0 8 20 54 45 103 25 48 45 90 45 91 0 2 -18 3 -40 3 -38 0 -52 14 -33 33 10 10 96 8 113 -3z m290 -67 c37 -89 60 -152 60 -164 0 -5 -9 -9 -19 -9 -12 0 -23 11 -30 30 -7 22 -16 30 -34 30 -53 0 -89 -13 -99 -36 -10 -22 -48 -35 -48 -17 0 20 116 243 126 243 7 0 27 -35 44 -77z m494 67 c15 -5 26 -17 26 -28 0 -29 -11 -34 -37 -17 -49 32 -123 -13 -123 -74 1 -66 58 -105 116 -79 13 6 31 7 41 4 17 -7 16 -9 -5 -26 -34 -28 -83 -34 -125 -17 -47 20 -71 58 -69 109 4 97 92 160 176 128z m347 -32 c51 -57 44 -134 -17 -187 -94 -83 -230 16 -192 141 14 47 27 58 86 74 61 16 91 9 123 -28z m-2381 -73 c96 -2 190 -4 208 -5 32 0 46 -23 20 -32 -7 -2 -137 -1 -288 2 -151 3 -350 6 -443 5 -123 0 -167 3 -167 12 0 34 20 35 670 18z m3547 -2 c3 -7 4 -15 4 -18 -1 -4 -175 -8 -388 -11 -214 -2 -405 -6 -426 -9 -47 -7 -87 3 -87 21 0 9 12 14 38 14 81 1 497 12 499 14 1 1 81 1 179 1 131 0 178 -3 181 -12z m-1027 -108 c10 -12 10 -18 0 -30 -17 -20 -37 -19 -48 3 -19 37 21 60 48 27z"></path><path d="M4533 8326 c-43 -10 -103 -29 -133 -41 -30 -13 -70 -26 -87 -30 -18 -4 -35 -10 -38 -15 -3 -4 -40 -27 -83 -51 -92 -50 -224 -174 -280 -263 -108 -170 -134 -224 -213 -446 -11 -30 -24 -86 -30 -125 -5 -38 -17 -108 -26 -155 -12 -68 -14 -122 -10 -265 4 -99 11 -198 17 -220 6 -22 12 -62 15 -90 2 -27 13 -77 24 -110 11 -33 25 -82 31 -110 21 -96 166 -423 214 -485 7 -8 36 -62 66 -120 144 -282 331 -536 640 -872 l35 -38 70 25 c39 14 76 28 82 30 12 4 -61 161 -91 194 -13 15 -63 129 -116 266 -13 33 -51 128 -85 210 -123 296 -224 632 -250 835 -8 58 -18 134 -24 170 -33 221 -41 394 -27 630 9 167 52 383 104 530 26 74 114 251 145 292 14 18 36 56 51 85 16 32 51 74 96 114 38 35 70 67 70 71 0 13 -80 5 -167 -16z m-53 -96 c0 -11 -4 -20 -10 -20 -5 0 -10 5 -10 10 0 13 -12 13 -46 0 -26 -10 -26 -11 -9 -30 10 -11 15 -23 11 -27 -4 -4 -17 6 -30 22 -22 27 -26 28 -51 17 -31 -14 -29 -32 6 -49 13 -7 18 -13 10 -13 -10 0 -8 -7 7 -23 30 -32 28 -43 -3 -18 -24 18 -28 19 -70 4 -25 -8 -45 -18 -45 -22 0 -19 53 -56 78 -54 27 3 27 3 5 -9 -13 -6 -23 -14 -23 -19 0 -19 -38 6 -63 42 -16 21 -32 39 -36 39 -23 0 -102 -43 -98 -53 2 -7 27 -13 55 -15 57 -3 65 -13 27 -30 -30 -14 -31 -22 -6 -49 13 -14 29 -19 48 -17 15 2 20 1 11 -2 -10 -3 -18 -12 -18 -21 0 -12 -3 -13 -13 -5 -7 6 -23 9 -35 5 -13 -3 -22 -1 -22 6 0 6 6 11 12 11 7 0 1 11 -13 25 -24 25 -25 25 -67 8 -58 -22 -54 -49 6 -46 48 2 53 -3 17 -17 -21 -8 -24 -13 -16 -29 6 -10 23 -30 38 -43 16 -14 44 -42 63 -62 30 -34 32 -37 10 -26 -14 7 -33 19 -43 28 -14 13 -24 13 -57 3 -21 -6 -41 -15 -44 -19 -3 -5 12 -27 33 -50 48 -53 31 -54 -40 -3 -54 38 -56 39 -86 24 -33 -15 -36 -45 -4 -42 28 3 34 -1 23 -14 -9 -10 -7 -19 5 -36 14 -20 22 -23 59 -17 47 6 61 -8 19 -18 -34 -9 -32 -19 12 -55 40 -33 40 -35 3 -45 -17 -5 -21 -4 -11 2 11 8 7 16 -20 40 l-34 30 -37 -19 c-21 -11 -38 -23 -38 -27 0 -5 11 -19 25 -32 21 -20 28 -22 50 -12 37 17 44 14 16 -7 -24 -18 -24 -18 -5 -44 10 -15 28 -27 39 -27 18 -1 17 -2 -5 -15 -28 -16 -53 -20 -30 -5 13 9 11 14 -13 35 -34 31 -46 31 -83 3 -16 -12 -31 -23 -33 -25 -2 -1 4 -12 14 -23 15 -16 26 -19 49 -14 l31 6 -20 -22 -20 -22 55 -49 c30 -26 51 -49 47 -49 -10 0 -63 37 -98 68 -26 22 -26 23 -57 5 -37 -21 -40 -33 -12 -58 20 -18 22 -18 51 -1 17 10 33 15 36 12 3 -3 -6 -11 -21 -17 -28 -13 -33 -28 -14 -47 9 -9 9 -12 1 -12 -7 0 -15 5 -18 10 -10 16 -21 12 -65 -25 -23 -19 -50 -39 -59 -45 -15 -8 -15 -10 2 -27 16 -17 20 -16 82 15 l65 32 38 -41 c20 -23 43 -51 51 -61 11 -16 20 -18 53 -13 29 5 39 4 34 -4 -4 -6 -13 -11 -21 -11 -7 0 -15 -3 -17 -7 -1 -5 -25 -19 -53 -32 -27 -14 -52 -26 -54 -28 -2 -1 2 -9 9 -18 19 -23 6 -29 -22 -11 -22 15 -26 14 -61 -11 -20 -14 -37 -30 -37 -34 0 -14 65 -54 83 -51 12 2 17 -1 12 -7 -9 -15 34 -50 60 -50 11 0 29 6 39 14 11 8 27 15 35 15 9 -1 2 -7 -15 -14 -33 -14 -53 -36 -35 -36 6 0 11 -4 11 -10 0 -6 -9 -6 -23 -1 -14 6 -30 5 -43 -2 -16 -9 -17 -9 -6 5 11 13 7 19 -23 37 l-35 20 -35 -20 c-19 -12 -35 -24 -35 -27 0 -13 60 -41 75 -36 11 5 13 2 9 -9 -4 -12 5 -20 31 -31 21 -9 46 -16 56 -16 27 0 14 -23 -26 -44 -33 -18 -34 -20 -19 -37 23 -26 50 -32 76 -18 21 11 22 11 9 -5 -13 -15 -13 -19 0 -27 10 -7 6 -8 -14 -3 -16 4 -33 1 -42 -6 -10 -9 -15 -9 -15 -1 0 6 5 11 10 11 21 0 9 16 -25 35 -36 18 -36 18 -56 -2 l-21 -20 49 -35 c26 -20 63 -43 81 -52 31 -16 35 -16 59 -1 13 9 27 14 30 12 2 -3 -5 -11 -18 -18 -22 -11 -22 -12 -4 -25 24 -18 13 -29 -13 -15 -23 12 -44 7 -84 -21 -38 -26 -35 -42 8 -56 34 -10 41 -8 102 29 71 42 106 54 51 16 -92 -62 -116 -71 -157 -59 -81 24 -98 8 -28 -26 24 -12 49 -29 56 -37 17 -20 38 -19 83 4 42 22 59 11 22 -13 -14 -9 -25 -20 -25 -24 0 -4 29 -23 65 -41 36 -19 65 -39 65 -44 0 -5 -8 -6 -17 -2 -41 17 -53 16 -89 -9 l-38 -25 34 -15 c30 -12 38 -12 62 0 38 20 45 17 20 -6 -12 -12 -22 -23 -22 -26 0 -2 26 -16 58 -31 l57 -26 -30 -9 c-38 -11 -90 -53 -81 -66 12 -20 64 -24 96 -7 18 9 34 14 37 11 3 -3 -6 -11 -21 -17 -14 -7 -26 -16 -26 -20 0 -11 54 -39 75 -39 20 0 20 -18 0 -22 -23 -5 -164 -111 -165 -124 0 -24 44 -23 92 2 28 14 52 23 54 21 2 -2 -5 -16 -17 -31 -15 -19 -17 -27 -7 -30 44 -14 70 -14 103 0 20 8 40 13 43 10 2 -3 -4 -9 -14 -13 -30 -11 -104 -64 -104 -73 0 -11 65 -24 84 -17 8 3 21 -2 30 -12 16 -17 15 -18 -7 -14 -17 3 -35 -5 -61 -27 -20 -18 -36 -36 -36 -41 0 -17 48 -20 78 -5 35 18 52 20 52 7 0 -5 -10 -12 -22 -15 -23 -6 -23 -7 -3 -18 11 -6 41 -12 67 -12 27 -1 48 -2 48 -2 0 -1 -31 -25 -70 -53 -38 -29 -70 -56 -70 -61 0 -4 12 -10 28 -13 19 -4 41 2 75 24 59 36 70 37 34 4 -31 -30 -34 -42 -9 -48 9 -3 3 -5 -14 -6 -31 -1 -70 -32 -57 -44 12 -12 53 -7 78 9 38 25 30 1 -15 -46 -39 -41 -60 -45 -60 -12 0 9 -14 25 -31 35 -26 14 -30 22 -25 42 6 23 3 25 -24 25 -41 0 -51 27 -19 51 29 21 21 32 -25 33 -48 2 -54 12 -23 37 38 29 34 39 -17 39 -56 0 -66 20 -26 54 17 13 39 27 50 31 28 9 25 22 -7 28 -20 4 -37 -2 -60 -19 -32 -24 -63 -24 -63 1 0 7 7 15 15 19 27 10 16 24 -24 31 -54 9 -68 28 -42 54 28 28 27 31 -13 31 -32 0 -46 13 -46 41 0 6 23 21 52 34 50 23 51 25 28 33 -26 10 -50 6 -50 -9 0 -17 -41 -31 -56 -18 -16 13 -19 49 -4 49 6 0 10 4 10 9 0 6 -15 11 -32 13 -28 3 -34 7 -36 32 -3 22 3 35 25 53 l28 24 -33 -5 c-55 -9 -79 6 -86 58 -4 25 -11 48 -16 51 -5 3 -19 19 -30 36 l-22 29 31 29 c20 19 27 32 21 36 -6 4 -20 -1 -31 -11 -18 -16 -20 -16 -38 0 -11 10 -23 31 -26 46 -3 16 -13 34 -21 41 -21 17 -18 23 26 65 45 43 47 49 23 58 -12 5 -25 -2 -43 -25 l-26 -31 -18 27 c-14 21 -15 29 -5 41 10 12 8 19 -10 37 -27 30 -27 48 4 77 33 31 32 43 -2 36 -45 -10 -66 16 -78 95 -6 41 -4 48 25 79 23 24 28 35 18 41 -7 4 -18 3 -25 -3 -17 -13 -44 -3 -37 15 2 7 0 27 -6 43 -6 16 -14 83 -16 148 l-5 119 28 23 c28 22 28 22 9 43 -29 32 -25 80 7 103 34 25 35 40 0 32 -26 -7 -26 -6 -20 31 4 21 13 45 20 53 10 10 12 24 7 47 -4 19 -4 54 1 79 16 87 58 141 132 172 26 10 45 24 43 29 -4 11 -22 11 -49 0 -16 -7 -18 -3 -15 26 3 30 9 37 55 59 55 26 66 40 33 40 -58 0 -17 78 52 100 58 18 66 27 35 39 -15 6 -27 17 -27 24 0 22 43 55 75 59 24 2 31 8 33 28 6 57 15 71 70 113 75 57 113 75 196 93 39 8 72 17 75 19 2 3 17 5 33 5 21 0 28 -5 28 -20z m-240 -430 c0 -5 -10 -10 -22 -10 -19 0 -20 2 -8 10 19 13 30 13 30 0z m-120 -410 c0 -5 -5 -10 -11 -10 -5 0 -7 5 -4 10 3 6 8 10 11 10 2 0 4 -4 4 -10z m-9 -57 c13 -17 13 -17 -6 -3 -11 8 -22 16 -24 17 -2 2 0 3 6 3 6 0 17 -8 24 -17z m29 -47 c0 -8 -80 -43 -85 -37 -4 3 11 13 32 23 39 17 53 21 53 14z m-5 -110 c-17 -12 -16 -15 21 -49 53 -49 39 -56 -16 -8 l-45 39 -47 -24 c-27 -14 -48 -19 -48 -14 0 6 33 26 73 44 71 33 98 38 62 12z m-69 -341 c-40 -27 -46 -29 -46 -17 0 8 57 40 74 41 5 1 -8 -10 -28 -24z m74 -65 c0 -5 -5 -10 -11 -10 -5 0 -7 5 -4 10 3 6 8 10 11 10 2 0 4 -4 4 -10z m-8 -220 c-42 -26 -56 -26 -17 0 17 11 35 20 40 20 6 0 -5 -9 -23 -20z m85 -314 c4 -7 22 -20 38 -29 17 -9 24 -16 17 -17 -19 0 -92 39 -92 50 0 15 28 12 37 -4z m193 -526 c-8 -5 -22 -10 -30 -10 -13 0 -13 1 0 10 8 5 22 10 30 10 13 0 13 -1 0 -10z m215 -576 c-40 -44 -40 -58 -1 -62 20 -3 37 5 57 24 16 15 32 25 35 21 4 -4 -17 -28 -45 -53 -44 -40 -50 -49 -36 -56 11 -7 24 -4 40 6 31 20 41 20 24 0 -10 -13 -10 -17 2 -25 8 -5 18 -9 23 -9 5 0 7 -2 4 -5 -3 -3 -28 0 -57 6 -51 11 -91 45 -77 68 3 5 -8 14 -25 20 -17 6 -29 15 -27 21 3 10 111 90 116 86 1 -2 -14 -20 -33 -42z"></path><path d="M4224 8155 c-19 -14 -19 -14 1 -15 32 0 65 12 59 21 -8 14 -38 11 -60 -6z"></path><path d="M4008 7834 c-54 -29 -29 -64 37 -54 59 9 63 15 35 45 -27 29 -35 30 -72 9z"></path><path d="M3908 7596 c-49 -39 -29 -68 28 -41 39 18 41 25 17 48 -17 14 -20 13 -45 -7z"></path><path d="M3808 7526 c-10 -7 -18 -16 -18 -20 0 -10 38 -7 46 5 11 18 -10 29 -28 15z"></path><path d="M3860 7460 c-23 -17 -24 -20 -9 -35 13 -14 22 -14 62 -3 26 7 47 16 47 20 0 8 -53 38 -67 38 -4 0 -19 -9 -33 -20z"></path><path d="M3772 7398 c-31 -31 -2 -51 34 -23 16 13 17 16 4 25 -19 13 -24 12 -38 -2z"></path><path d="M3829 7334 c-20 -21 -21 -26 -8 -39 12 -12 20 -13 47 -3 38 15 41 30 8 51 -22 15 -25 14 -47 -9z"></path><path d="M3744 7265 c-4 -9 -3 -19 0 -23 9 -8 42 12 39 24 -4 16 -33 16 -39 -1z"></path><path d="M3801 7206 c-10 -11 -9 -19 1 -35 15 -25 26 -26 53 -5 15 11 17 18 9 32 -14 22 -48 27 -63 8z"></path><path d="M3745 7160 c-17 -19 -17 -22 -2 -37 15 -15 18 -15 42 1 26 17 26 18 9 37 -22 24 -27 24 -49 -1z"></path><path d="M3893 7058 c-24 -16 -43 -32 -43 -36 0 -5 20 -28 45 -52 l45 -44 56 28 c31 15 53 31 48 35 -5 4 -31 28 -59 53 l-50 46 -42 -30z"></path><path d="M3730 7025 c-13 -14 -21 -28 -17 -31 8 -8 56 28 57 44 0 19 -14 14 -40 -13z"></path><path d="M3784 6973 c-33 -36 -26 -48 27 -46 l44 2 -24 -20 c-17 -14 -21 -23 -14 -30 13 -13 39 -6 73 21 l25 19 -45 40 c-25 22 -49 40 -53 41 -4 0 -19 -12 -33 -27z"></path><path d="M3695 6886 c-11 -8 -17 -17 -14 -21 10 -10 60 6 56 18 -5 17 -21 18 -42 3z"></path><path d="M3741 6836 c-23 -24 -21 -46 3 -46 7 0 25 13 40 29 23 24 25 29 11 35 -25 9 -30 8 -54 -18z"></path><path d="M3807 6791 c-25 -24 -26 -29 -13 -40 13 -11 24 -10 62 5 l47 18 -29 23 c-16 13 -31 23 -34 22 -3 0 -18 -13 -33 -28z"></path><path d="M3786 6644 c-48 -48 -26 -67 35 -29 38 25 40 27 22 40 -24 19 -26 19 -57 -11z"></path><path d="M3851 6596 c-29 -30 -32 -38 -21 -51 18 -21 30 -19 93 18 57 32 67 50 31 54 -10 1 -30 5 -44 8 -20 5 -32 -1 -59 -29z"></path><path d="M3832 6447 c-22 -23 -22 -24 -4 -40 20 -18 22 -17 82 31 7 5 -31 32 -45 32 -6 0 -21 -10 -33 -23z"></path><path d="M3910 6400 c-34 -29 -34 -31 -16 -45 11 -8 26 -15 34 -15 17 0 92 41 92 50 0 5 -65 41 -73 40 -1 0 -18 -14 -37 -30z"></path><path d="M3894 6229 c-3 -6 -1 -16 4 -21 13 -13 45 8 36 23 -7 12 -31 11 -40 -2z"></path><path d="M3962 6198 c-17 -17 -15 -45 4 -52 17 -7 44 5 63 28 22 26 -42 49 -67 24z"></path><path d="M4055 6136 c-30 -24 -30 -25 -10 -40 11 -9 27 -13 35 -9 8 3 30 11 48 17 40 13 40 21 2 41 -38 20 -40 19 -75 -9z"></path><path d="M3975 6041 c-10 -18 17 -23 33 -7 15 15 15 16 -5 16 -12 0 -24 -4 -28 -9z"></path><path d="M4039 6014 c-11 -14 -10 -18 6 -30 11 -8 26 -12 35 -8 8 3 24 9 35 12 19 5 19 4 3 -15 -23 -25 -23 -35 2 -51 23 -14 102 1 120 23 14 16 -14 33 -108 64 -74 25 -76 25 -93 5z"></path><path d="M4125 5848 c-54 -43 -11 -72 55 -38 33 17 39 24 30 34 -18 23 -59 25 -85 4z"></path><path d="M4218 5801 l-31 -27 32 -14 c29 -12 37 -11 78 9 51 24 50 30 -8 48 -38 11 -42 10 -71 -16z"></path><path d="M4258 5596 c-25 -18 -23 -23 11 -31 33 -7 96 19 86 35 -9 15 -77 11 -97 -4z"></path><path d="M4409 5374 c-10 -13 -10 -17 2 -25 21 -13 46 -11 82 8 l32 17 -30 7 c-51 11 -72 10 -86 -7z"></path><path d="M5263 8329 c-48 -18 -9 -54 39 -37 15 6 28 13 28 17 0 15 -45 28 -67 20z"></path><path d="M4940 8269 l22 -30 -23 -25 c-27 -29 -40 -30 -64 -4 -31 34 -38 22 -9 -15 14 -19 22 -35 18 -35 -5 0 2 -6 15 -13 46 -23 49 -43 13 -79 l-33 -33 -61 63 c-33 34 -62 61 -64 59 -2 -1 21 -31 51 -66 61 -69 59 -65 45 -92 -14 -24 -35 -24 -60 1 -11 11 -20 16 -20 11 0 -6 4 -13 10 -16 5 -3 15 -15 20 -25 9 -16 4 -27 -26 -59 -33 -37 -38 -61 -13 -61 6 0 7 5 3 11 -7 12 43 69 62 69 7 0 22 -12 34 -27 l21 -26 -33 -34 c-21 -22 -35 -30 -42 -23 -17 17 -27 11 -14 -9 10 -16 7 -24 -15 -51 -15 -17 -27 -37 -27 -43 0 -7 15 5 33 26 31 36 33 37 55 22 30 -22 28 -35 -11 -73 -26 -25 -36 -29 -45 -20 -7 7 -12 8 -12 2 0 -6 5 -15 10 -20 7 -7 -4 -30 -35 -70 -24 -32 -45 -63 -45 -69 0 -5 25 15 55 45 l55 54 30 -29 c16 -16 30 -32 30 -36 0 -3 -28 -37 -63 -75 -34 -38 -68 -82 -76 -99 l-13 -30 22 20 c21 19 21 19 57 -17 l36 -37 -27 -35 c-15 -20 -31 -36 -37 -36 -5 0 -9 -6 -9 -12 -1 -7 -21 -38 -45 -68 -24 -30 -42 -56 -40 -58 3 -4 32 27 84 88 l21 25 34 -40 c29 -34 32 -42 21 -55 -7 -8 -39 -50 -70 -94 -61 -86 -73 -127 -12 -46 20 27 41 50 45 50 5 0 21 -14 37 -30 l29 -30 -20 -27 c-32 -42 -50 -50 -72 -30 -31 28 -38 19 -9 -11 15 -16 24 -32 20 -36 -5 -4 -1 -6 7 -5 18 4 80 -40 80 -57 0 -7 -12 -26 -26 -43 -29 -35 -40 -33 -89 18 -16 17 -34 31 -40 31 -5 0 13 -23 40 -50 l49 -50 -18 -35 c-20 -37 -34 -43 -54 -23 -6 6 -14 9 -17 6 -3 -2 25 -35 62 -71 66 -65 67 -66 52 -93 -7 -15 -22 -29 -31 -32 -27 -7 -22 -21 22 -61 l40 -36 -20 -24 c-19 -22 -21 -22 -45 -7 -70 45 -78 47 -35 7 25 -22 57 -49 73 -58 15 -10 30 -25 33 -35 5 -17 -23 -78 -37 -78 -3 0 -26 14 -50 31 l-44 32 42 -44 42 -44 -30 -54 c-17 -29 -29 -54 -27 -56 7 -8 24 11 43 48 11 21 24 41 28 44 10 6 77 -39 77 -52 0 -5 -9 -25 -20 -43 -18 -29 -22 -31 -43 -21 -22 12 -22 12 -4 -9 18 -20 18 -21 -7 -61 -15 -23 -22 -43 -16 -46 6 -3 10 -1 10 5 0 7 9 25 21 41 22 31 28 30 78 -9 24 -19 24 -19 5 -45 -11 -15 -29 -27 -43 -27 -20 0 -21 -2 -11 -15 10 -12 10 -18 0 -30 -19 -23 -3 -31 20 -10 20 18 21 18 47 -8 23 -22 25 -28 13 -42 -8 -10 -19 -27 -25 -39 -6 -12 -20 -21 -32 -20 -17 0 -19 -3 -10 -17 8 -14 5 -24 -15 -51 -29 -38 -44 -78 -30 -78 6 0 12 5 14 12 3 7 16 3 37 -13 23 -17 31 -30 28 -46 -3 -18 -1 -20 14 -10 14 9 22 7 38 -7 20 -19 20 -19 1 -44 -26 -32 -17 -42 13 -14 13 12 29 22 36 22 8 0 11 10 9 27 -2 21 -10 29 -35 35 -18 5 -33 11 -33 14 0 3 14 25 30 49 17 24 30 45 30 48 0 2 -18 9 -40 16 -21 6 -42 16 -45 21 -4 6 14 33 39 61 35 39 44 55 35 65 -6 7 -16 11 -23 8 -13 -5 -66 32 -66 46 0 4 20 33 45 63 45 56 49 79 8 52 -21 -14 -26 -14 -52 0 -43 22 -45 31 -14 65 23 27 32 30 60 25 37 -7 45 8 13 25 -20 11 -20 11 0 38 10 15 20 40 22 56 3 26 -4 33 -81 80 -47 28 -86 56 -88 62 -2 6 5 21 15 34 18 23 19 23 48 4 16 -10 35 -24 42 -31 21 -20 42 -15 42 10 0 13 6 29 13 36 10 11 7 12 -14 7 -27 -6 -89 10 -89 23 0 14 57 62 71 59 8 -2 14 5 15 17 0 11 6 31 13 43 18 34 5 40 -24 12 -26 -24 -26 -24 -60 -6 -19 11 -35 22 -35 25 0 4 13 22 28 40 25 31 30 33 51 21 30 -15 49 1 27 23 -22 21 -20 30 9 57 33 31 32 56 -2 75 -70 37 -70 40 -25 89 23 25 42 55 42 66 0 22 -10 26 -26 10 -11 -11 -84 36 -84 55 0 13 42 55 54 55 4 0 19 -9 34 -20 18 -15 29 -17 36 -10 7 7 2 17 -18 34 l-30 23 23 32 c29 40 20 52 -12 17 -30 -32 -34 -32 -72 -2 l-29 24 27 36 c16 20 30 36 33 36 3 0 20 -11 38 -25 34 -25 56 -32 56 -16 0 5 -16 21 -35 36 l-36 26 33 41 32 41 -47 40 -48 40 22 23 c13 13 28 24 35 24 18 0 38 40 27 51 -5 5 -19 11 -31 14 -33 6 -82 44 -76 59 3 7 18 23 35 35 24 18 33 20 50 10 26 -13 43 5 29 32 -5 9 -7 19 -3 22 3 4 0 13 -6 21 -10 12 -17 13 -31 4 -14 -9 -24 -7 -49 11 -17 12 -31 26 -31 30 0 4 13 20 29 35 21 20 34 26 53 21 22 -6 25 -3 25 25 0 23 -4 29 -15 25 -15 -5 -82 31 -82 44 0 11 34 41 47 41 5 0 18 -9 28 -20 20 -23 35 -18 35 12 0 11 -8 22 -20 25 -11 3 -20 9 -20 13 0 4 9 15 20 25 38 34 11 50 -34 20 -21 -14 -25 -13 -51 9 -29 25 -29 25 -10 46 33 36 54 44 74 26 21 -19 37 -20 47 -5 4 7 -4 20 -17 30 -23 17 -23 18 -5 38 24 26 13 40 -12 18 -25 -23 -45 -21 -68 4 -19 21 -19 21 11 45 22 18 37 23 58 18 29 -6 35 4 15 24 -9 9 -9 15 0 24 21 21 13 31 -13 14 -20 -13 -28 -14 -45 -4 -11 7 -20 16 -20 20 0 5 -5 8 -11 8 -6 0 -1 -14 11 -31z m-18 -344 c-14 -31 -29 -32 -59 -3 -29 27 -29 43 -1 62 21 15 24 14 47 -9 21 -21 23 -27 13 -50z m15 -129 c-3 -8 -18 -23 -32 -32 -26 -17 -27 -16 -51 7 l-24 25 32 32 31 33 25 -25 c15 -14 22 -31 19 -40z m-13 -123 c11 -15 21 -30 21 -33 0 -4 -13 -21 -28 -40 l-28 -33 -35 34 -34 33 32 33 c18 18 36 33 41 33 5 0 19 -12 31 -27z m4 -176 l33 -34 -21 -26 c-26 -33 -29 -33 -63 -2 -34 32 -35 23 -2 -17 l25 -30 -22 -28 c-13 -16 -27 -29 -31 -29 -14 -1 -77 53 -77 66 0 12 109 132 121 133 3 0 20 -15 37 -33z m40 -171 l33 -34 -30 -21 c-16 -12 -32 -21 -35 -21 -3 0 -21 14 -41 31 l-36 32 22 23 c30 32 48 30 87 -10z m-81 -62 c18 -14 33 -28 33 -32 0 -4 -13 -23 -28 -42 l-29 -34 -36 28 c-20 16 -37 33 -37 39 0 11 49 67 58 67 3 0 20 -11 39 -26z m20 -176 c29 -27 28 -36 -2 -72 l-24 -29 -35 27 c-20 15 -36 30 -36 33 0 11 53 63 64 63 5 0 20 -10 33 -22z m17 -173 c13 -19 14 -30 6 -45 -19 -36 -44 -41 -78 -17 -17 12 -32 26 -32 31 0 5 11 24 26 43 28 37 48 34 78 -12z m21 -161 l34 -25 -21 -35 c-11 -19 -22 -34 -24 -34 -15 0 -71 30 -83 44 -12 15 -11 20 14 46 16 17 33 30 38 30 4 0 23 -12 42 -26z m-65 -97 c16 -12 29 -26 29 -30 1 -16 -40 -67 -53 -67 -16 0 -85 52 -86 64 0 18 54 67 68 61 8 -3 27 -15 42 -28z m44 -185 c5 -9 -34 -72 -46 -72 -4 0 -19 11 -34 23 l-28 24 23 31 c22 31 23 31 51 17 16 -8 31 -19 34 -23z m19 -287 c33 -29 33 -36 4 -63 l-23 -22 -37 26 c-38 25 -39 32 -9 67 20 23 31 21 65 -8z m37 -583 c0 -7 -7 -24 -16 -37 -17 -26 -25 -25 -68 8 -19 14 -19 15 3 46 22 31 23 31 52 14 16 -10 29 -23 29 -31z"></path><path d="M5197 8284 c-14 -14 -7 -25 13 -22 12 2 21 8 21 13 0 12 -24 18 -34 9z"></path><path d="M5830 8236 c0 -7 14 -19 31 -26 25 -11 30 -18 26 -38 -4 -22 1 -27 44 -45 50 -21 58 -34 37 -55 -18 -18 0 -27 19 -10 10 9 29 18 43 20 21 4 12 11 -53 42 -77 37 -92 58 -37 53 46 -3 37 16 -21 45 -60 30 -89 35 -89 14z"></path><path d="M5250 8224 c-11 -12 -11 -18 2 -30 13 -13 20 -14 39 -4 34 18 35 19 13 35 -25 19 -39 19 -54 -1z"></path><path d="M6031 8204 c8 -10 40 -48 70 -84 53 -62 103 -140 146 -225 11 -22 38 -77 61 -121 23 -45 48 -99 56 -120 8 -22 28 -75 46 -118 17 -44 35 -100 40 -125 12 -72 41 -183 53 -211 7 -15 12 -96 14 -195 2 -175 0 -191 -55 -450 -26 -121 -46 -187 -104 -340 -73 -194 -91 -238 -104 -255 -6 -8 -22 -35 -34 -60 -13 -25 -33 -59 -46 -76 -13 -17 -24 -35 -24 -40 0 -6 -20 -41 -45 -78 -25 -38 -45 -71 -45 -73 0 -3 -9 -17 -20 -31 -11 -15 -64 -92 -116 -172 -53 -80 -121 -174 -153 -210 -31 -36 -83 -97 -114 -137 -32 -39 -69 -79 -83 -88 -14 -9 -24 -21 -22 -26 2 -5 27 -20 56 -34 52 -24 52 -24 63 -4 6 12 91 101 190 200 98 99 179 184 179 190 0 6 18 31 39 57 126 149 201 243 201 250 0 5 12 19 26 33 14 13 63 80 108 149 91 138 93 140 171 256 66 97 150 271 198 409 19 55 44 123 55 150 11 28 30 106 42 174 22 118 23 133 12 300 -10 161 -22 246 -52 371 -13 51 -84 205 -100 215 -5 3 -10 13 -10 22 0 29 -82 144 -167 236 -140 153 -328 259 -483 274 -63 6 -65 5 -49 -13z m199 -74 c0 -15 -39 -32 -60 -25 -21 7 -25 17 -13 28 10 11 73 8 73 -3z m70 -50 c0 -5 -5 -10 -10 -10 -6 0 -22 -12 -36 -27 -22 -24 -26 -25 -41 -11 -8 9 -12 21 -8 28 15 24 95 41 95 20z m57 -64 c-17 -13 -15 -16 26 -41 34 -19 52 -24 74 -19 25 7 27 6 14 -10 -12 -14 -11 -19 4 -36 10 -11 13 -20 8 -20 -6 0 -16 7 -23 15 -19 23 -39 18 -77 -20 -41 -41 -44 -41 -67 -16 -22 24 -17 34 29 55 60 29 34 51 -37 32 -28 -8 -41 -7 -50 2 -26 26 30 72 87 72 28 -1 29 -2 12 -14z m127 -160 c-7 -19 38 -48 61 -40 14 6 16 3 10 -14 -3 -13 -2 -22 4 -22 6 0 16 -10 22 -22 l12 -21 -28 21 c-35 28 -42 28 -88 -4 -32 -22 -36 -28 -25 -41 12 -15 71 -14 127 3 17 5 22 4 17 -4 -4 -7 20 -38 61 -78 75 -74 70 -73 -28 4 l-65 51 -58 -45 c-46 -37 -60 -43 -72 -33 -18 15 -18 43 1 59 19 15 3 40 -26 40 -21 0 -46 42 -51 86 -3 26 2 32 42 52 51 26 92 30 84 8z m136 -245 c0 -5 -9 -11 -20 -14 -31 -8 -24 -22 30 -68 28 -23 50 -47 50 -52 0 -6 -9 -2 -20 8 -18 17 -21 16 -55 -5 -35 -22 -36 -23 -18 -42 17 -19 17 -19 -10 -7 -23 10 -30 10 -47 -6 -27 -24 -48 -7 -29 23 11 18 9 24 -21 52 l-33 31 23 24 c42 44 150 85 150 56z m118 -267 c58 -56 63 -64 39 -58 -28 6 -107 -20 -107 -37 0 -12 51 -49 67 -49 9 0 13 -6 9 -15 -3 -8 4 -21 17 -30 12 -8 17 -15 11 -15 -5 0 -19 7 -31 15 -22 15 -78 11 -89 -7 -3 -5 24 -38 61 -74 37 -35 63 -64 57 -64 -5 0 -15 7 -22 16 -28 33 -49 36 -85 14 -40 -25 -41 -27 -15 -59 17 -20 26 -23 58 -18 l37 6 -23 -17 -23 -18 47 -37 c57 -45 49 -48 -18 -7 -51 32 -75 32 -99 4 -10 -13 -8 -20 13 -41 24 -23 29 -25 59 -14 41 14 81 15 59 1 -8 -5 -25 -10 -37 -10 -34 0 -38 -19 -8 -50 29 -30 27 -50 -6 -50 -25 0 -24 -8 3 -37 31 -33 16 -38 -22 -7 -31 26 -33 27 -58 11 -40 -24 -50 -44 -30 -63 13 -14 23 -15 67 -5 29 6 57 11 64 11 21 -1 -37 -29 -60 -30 -37 0 -39 -22 -3 -52 19 -15 29 -28 23 -28 -6 0 -25 11 -41 25 -36 30 -36 30 -79 4 -34 -21 -34 -22 -16 -40 15 -16 24 -17 53 -9 55 16 68 11 33 -11 -32 -20 -43 -39 -23 -39 6 0 10 -5 10 -11 0 -6 -9 -4 -22 5 -20 14 -25 13 -60 -6 -41 -23 -42 -26 -29 -47 7 -10 21 -12 56 -7 33 5 45 4 40 -3 -3 -6 -15 -11 -25 -11 -28 0 -34 -19 -13 -43 l18 -21 -27 17 c-35 22 -51 21 -72 -2 -30 -33 -16 -45 50 -43 l59 2 -40 -15 c-22 -8 -41 -15 -42 -15 -11 0 1 -25 20 -41 12 -10 17 -18 11 -19 -6 0 -19 9 -29 20 -22 25 -33 25 -64 1 -18 -13 -22 -23 -16 -40 6 -21 11 -22 53 -16 46 7 52 -8 7 -17 -11 -2 -19 -11 -19 -21 2 -19 -7 -22 -23 -6 -8 8 -19 6 -41 -5 -43 -22 -45 -29 -19 -67 41 -61 42 -63 21 -51 -13 7 -27 6 -51 -6 -36 -17 -38 -23 -23 -52 8 -15 18 -18 43 -14 l32 6 -24 -20 c-14 -11 -21 -24 -16 -31 5 -10 3 -10 -12 0 -31 19 -79 -1 -75 -32 l2 -23 -24 23 c-29 27 -24 49 13 57 53 12 54 12 31 44 -21 30 -21 32 -5 51 10 10 31 19 48 19 24 0 28 3 22 18 -28 66 -29 73 -19 90 6 9 20 21 32 27 26 11 28 28 7 45 -12 10 -12 15 -1 33 7 12 22 45 32 74 14 42 24 54 47 63 29 10 29 11 13 29 -27 30 -13 80 25 88 23 4 27 8 18 19 -6 8 -20 14 -30 14 -11 0 -19 4 -19 10 0 14 38 47 71 60 38 16 37 27 -3 38 -29 7 -33 12 -30 38 2 16 7 32 10 36 12 11 125 48 149 48 27 0 29 7 6 32 -22 24 -28 23 -78 -13 -50 -36 -75 -34 -67 6 2 15 10 28 16 31 65 22 68 24 56 39 -6 7 -24 15 -38 17 -40 5 -33 30 15 53 24 11 43 23 43 26 0 3 -18 15 -40 28 -22 12 -40 25 -40 29 1 10 26 42 34 42 4 0 23 7 43 15 l37 16 -32 19 c-21 13 -41 18 -57 14 -20 -5 -25 -2 -25 13 0 20 34 44 93 62 20 7 37 16 37 19 0 4 -13 16 -27 26 -26 19 -27 19 -66 -3 -23 -13 -43 -19 -48 -14 -11 11 17 53 37 53 34 0 5 27 -48 44 -10 3 -18 9 -18 14 0 22 77 69 148 91 2 1 34 -28 70 -65z m-413 -1543 c19 -3 -20 -21 -45 -21 -14 0 -31 -4 -39 -9 -12 -8 -12 -13 3 -35 9 -14 15 -26 14 -27 -2 0 -11 -2 -22 -4 -78 -15 -104 -61 -33 -59 48 2 48 -13 0 -25 -78 -19 -123 -28 -123 -24 0 19 25 43 45 43 23 0 24 2 13 26 -11 23 -9 28 12 45 14 10 35 19 48 19 26 0 28 8 5 25 -17 13 -17 14 0 33 16 18 57 22 122 13z m-190 -251 c-7 -12 -85 -33 -92 -26 -3 3 0 12 7 21 14 16 95 22 85 5z m-58 -86 c-7 -7 -112 -33 -116 -28 -2 2 3 12 12 22 12 13 27 16 62 14 25 -2 44 -6 42 -8z m-82 -86 c3 -3 -13 -10 -36 -17 -45 -14 -58 -9 -40 13 10 12 65 16 76 4z m-19 -67 c-7 -11 -96 -34 -104 -27 -5 6 4 10 58 25 46 12 52 13 46 2z m-81 -80 c-14 -13 -83 -26 -70 -13 10 10 37 19 65 21 8 1 10 -2 5 -8z m-95 -99 c0 -9 -64 -42 -80 -42 -21 0 -9 17 23 33 36 18 57 21 57 9z"></path><path d="M6415 7820 c-18 -20 -17 -20 8 -20 42 0 59 10 46 26 -16 19 -33 17 -54 -6z"></path><path d="M6517 7552 c-22 -24 -21 -35 2 -56 17 -16 21 -16 61 0 l43 17 -32 29 c-37 33 -52 35 -74 10z"></path><path d="M6623 7368 c-34 -16 -37 -39 -9 -67 25 -24 28 -25 73 -13 26 7 50 15 52 18 7 7 -71 73 -84 73 -5 0 -20 -5 -32 -11z"></path><path d="M5954 8025 c11 -8 25 -15 30 -15 6 0 21 -9 34 -18 21 -16 22 -20 8 -31 -9 -8 -16 -18 -16 -24 0 -6 11 0 25 13 23 22 25 22 50 6 21 -14 23 -20 15 -36 -15 -27 -29 -33 -46 -19 -8 6 -17 9 -21 6 -7 -7 37 -46 52 -47 22 0 54 -31 49 -45 -8 -19 -28 -19 -62 1 l-27 16 28 -25 c32 -30 32 -34 10 -59 -9 -10 -12 -18 -6 -18 5 0 18 9 28 19 17 20 17 20 46 -1 16 -12 29 -25 29 -29 0 -4 -16 -22 -35 -40 -34 -32 -50 -64 -20 -39 12 10 22 8 55 -14 43 -28 48 -41 26 -71 -12 -17 -17 -18 -41 -7 -48 22 -38 5 18 -31 30 -20 58 -40 61 -46 11 -18 -25 -63 -46 -58 -14 4 -16 2 -9 -11 7 -13 3 -24 -17 -46 -24 -25 -24 -27 -5 -17 12 6 25 16 29 22 3 6 17 8 32 4 21 -5 23 -4 14 8 -9 10 -9 20 1 40 14 31 33 34 58 11 17 -15 17 -19 3 -45 -8 -16 -19 -29 -24 -29 -6 0 -10 -8 -10 -18 0 -10 -6 -24 -12 -31 -11 -11 -9 -11 9 -2 18 9 26 7 47 -11 l26 -23 -21 -33 c-20 -31 -23 -32 -43 -17 -44 31 -60 35 -27 6 32 -28 34 -32 22 -58 -13 -27 -13 -28 8 -9 19 18 22 18 46 2 22 -15 25 -22 20 -49 -7 -30 -6 -31 8 -12 16 20 16 20 42 -5 23 -23 24 -29 14 -58 -6 -18 -15 -32 -20 -32 -5 0 -40 27 -79 61 -39 34 -74 58 -78 55 -3 -4 5 -14 18 -23 14 -10 49 -40 79 -69 l54 -51 -19 -26 c-25 -34 -36 -34 -79 4 -20 18 -37 30 -38 28 -6 -8 -27 -60 -27 -66 0 -3 9 5 19 18 l19 24 29 -21 c15 -12 29 -28 31 -37 2 -8 -19 -38 -47 -66 -65 -66 -50 -66 19 0 50 48 53 49 71 33 11 -9 19 -25 19 -35 0 -24 -33 -42 -48 -27 -18 18 -25 3 -11 -20 11 -18 10 -24 -5 -41 -23 -25 -34 -26 -58 -4 -10 9 -18 12 -18 7 0 -5 9 -18 21 -28 l21 -18 -28 -29 c-16 -16 -34 -27 -41 -24 -40 16 -46 16 -25 0 l23 -17 -22 -24 c-26 -27 -15 -33 13 -7 18 16 20 16 38 -3 19 -19 19 -19 -15 -59 -30 -36 -36 -39 -54 -27 -29 17 -33 15 -19 -9 10 -17 10 -23 1 -26 -7 -3 -13 -9 -13 -14 0 -6 10 -5 22 2 19 10 25 8 45 -16 29 -33 27 -51 -10 -73 -27 -17 -28 -17 -62 21 -19 20 -39 37 -46 37 -15 0 -82 -50 -76 -57 8 -7 65 25 70 39 3 9 13 5 32 -12 40 -37 49 -58 33 -78 -11 -15 -11 -16 3 -4 14 11 21 8 43 -18 14 -18 26 -37 26 -44 0 -12 -52 -56 -67 -56 -4 0 -27 23 -51 50 -24 28 -48 50 -53 50 -6 0 10 -24 35 -54 25 -29 46 -58 46 -64 0 -5 6 -12 14 -15 7 -3 23 -19 34 -35 l21 -29 -23 -22 -23 -22 -32 27 c-21 17 -31 33 -28 45 3 11 0 16 -7 13 -7 -3 -21 4 -31 16 -10 11 -23 20 -28 20 -6 0 -1 -10 11 -23 12 -13 22 -26 22 -29 0 -3 14 -20 30 -38 37 -39 37 -53 4 -79 -31 -24 -19 -28 14 -5 18 12 26 13 37 4 21 -18 19 -33 -10 -60 l-25 -23 -68 71 c-38 40 -72 72 -76 72 -3 0 21 -32 54 -72 33 -39 60 -77 60 -85 0 -7 -15 -22 -32 -33 l-33 -20 -34 33 c-32 31 -35 21 -3 -15 12 -14 12 -20 2 -33 -10 -12 -10 -15 4 -15 22 0 50 -55 33 -67 -30 -24 -38 -23 -67 8 -34 38 -50 35 -20 -4 28 -35 26 -43 -17 -60 -36 -14 -39 -14 -62 6 l-24 22 12 -22 c9 -17 8 -25 -6 -39 -16 -16 -16 -16 6 -9 40 12 68 -45 34 -71 -27 -20 -49 -17 -67 11 -9 14 -21 25 -27 25 -5 0 8 -24 31 -53 44 -59 48 -72 24 -81 -30 -11 -58 -6 -81 16 -13 12 -23 17 -23 11 0 -6 7 -16 15 -23 8 -7 15 -17 15 -23 0 -6 10 -21 21 -34 18 -18 20 -25 10 -37 -21 -26 -51 -30 -67 -9 -14 17 -15 17 -9 -4 4 -15 -1 -26 -17 -37 l-22 -16 22 0 c35 0 132 59 132 80 0 11 -4 22 -10 25 -16 10 -12 35 5 35 9 0 30 7 48 16 31 16 31 17 9 25 -28 11 -40 38 -21 50 8 5 29 8 48 7 23 -2 37 4 47 17 19 26 18 37 -4 31 -12 -4 -28 4 -47 24 l-28 30 36 15 c47 20 53 19 71 -7 12 -17 19 -19 27 -11 9 9 9 16 1 26 -13 15 6 38 41 50 30 11 31 36 3 66 l-27 28 33 22 33 21 21 -26 c17 -20 22 -23 27 -11 3 8 -1 24 -8 34 -13 18 -12 23 9 42 14 13 29 19 39 15 14 -5 17 0 17 27 0 18 -8 41 -17 51 -16 17 -16 20 0 36 14 13 21 14 36 5 23 -14 31 -8 31 27 0 14 5 31 12 38 16 16 1 29 -20 15 -14 -8 -24 -5 -47 14 l-29 25 35 29 c34 28 34 28 51 9 30 -36 50 -21 27 21 -8 16 -7 25 6 39 9 10 23 16 30 14 13 -5 35 24 35 45 0 6 -16 21 -35 33 -19 13 -35 28 -35 34 0 18 37 47 45 35 13 -21 27 -11 21 15 -5 17 0 34 14 55 17 23 18 29 6 29 -8 0 -22 -10 -30 -22 l-16 -23 -28 28 c-20 20 -24 30 -14 35 9 6 4 16 -18 37 l-30 29 27 28 c15 15 30 28 33 28 3 0 30 -34 59 -76 36 -51 57 -72 63 -66 7 7 1 23 -18 47 l-28 38 33 27 c38 32 36 56 -6 90 -23 18 -25 23 -15 45 13 27 31 32 50 13 16 -16 16 5 0 32 -10 16 -9 24 11 51 l23 31 -21 29 -22 30 20 33 c28 45 27 52 -19 93 l-40 36 20 32 c26 42 25 51 -6 82 -22 22 -24 29 -15 50 15 32 14 43 -3 43 -7 0 -16 -9 -19 -20 -6 -23 -29 -26 -46 -6 -10 12 -9 20 4 40 19 28 35 32 53 14 9 -9 12 -8 12 4 0 9 -5 20 -10 23 -6 4 -8 15 -5 25 7 21 -14 38 -25 20 -6 -9 -12 -9 -29 -1 -25 14 -27 30 -7 57 13 17 18 17 36 6 30 -18 41 -4 13 15 -13 9 -23 22 -23 29 0 8 -6 14 -14 14 -8 0 -24 8 -37 19 -20 16 -21 21 -10 35 7 9 23 16 34 16 20 0 20 1 2 20 -10 12 -34 30 -53 42 -27 17 -32 25 -28 44 5 17 2 24 -8 24 -8 0 -16 -5 -18 -12 -5 -15 -58 19 -58 38 0 25 30 28 60 5 34 -24 40 -26 40 -8 0 6 -14 20 -31 30 -23 13 -30 23 -26 37 3 13 0 20 -9 20 -8 0 -14 -4 -14 -10 0 -15 -17 -12 -46 6 -23 16 -24 18 -8 35 10 11 25 19 36 19 31 0 20 18 -27 46 -25 14 -42 30 -39 35 3 5 2 14 -2 21 -5 8 -11 6 -20 -6 -12 -17 -15 -16 -59 3 -55 24 -68 26 -41 6z m283 -347 c27 -25 29 -41 8 -58 -13 -11 -34 -2 -84 37 -7 5 31 43 42 43 6 0 21 -10 34 -22z m34 -117 c22 -17 22 -21 10 -45 -17 -31 -31 -33 -61 -8 -22 18 -22 19 -5 45 21 32 26 33 56 8z m107 -333 c16 -16 15 -40 -2 -64 -14 -19 -15 -19 -40 5 -23 22 -24 25 -9 47 17 27 33 30 51 12z m38 -302 c3 -13 1 -34 -6 -45 -9 -17 -15 -19 -30 -11 -23 12 -24 20 -8 55 14 32 36 32 44 1z m-38 -211 c8 -18 8 -33 0 -55 l-10 -32 -34 33 -34 33 22 23 c28 29 42 29 56 -2z m-98 -210 c22 -23 22 -25 6 -50 -21 -32 -36 -32 -66 0 l-23 25 23 25 c29 31 31 31 60 0z m-4 -150 c15 -23 15 -27 0 -50 -13 -20 -21 -23 -34 -16 -20 11 -57 50 -51 54 19 15 55 37 61 37 4 0 15 -11 24 -25z"></path><path d="M5210 7975 c-10 -13 -10 -19 5 -35 22 -24 25 -24 50 -6 19 14 19 15 -5 35 -30 25 -34 25 -50 6z"></path><path d="M3840 7941 c0 -6 5 -13 10 -16 6 -3 10 1 10 9 0 9 -4 16 -10 16 -5 0 -10 -4 -10 -9z"></path><path d="M5276 7911 c-14 -15 -15 -24 -6 -40 6 -12 15 -21 21 -21 8 0 49 22 69 38 6 5 -42 42 -56 42 -6 0 -19 -9 -28 -19z"></path><path d="M3790 7870 c0 -5 5 -10 11 -10 5 0 7 5 4 10 -3 6 -8 10 -11 10 -2 0 -4 -4 -4 -10z"></path><path d="M5201 7839 c-29 -27 -27 -32 12 -24 43 9 50 18 28 32 -15 10 -23 8 -40 -8z"></path><path d="M3706 7818 c4 -7 -18 -35 -57 -71 l-64 -59 68 47 c38 26 76 48 85 50 9 2 19 4 22 5 8 1 -41 40 -52 40 -5 0 -6 -5 -2 -12z"></path><path d="M5261 7779 l-24 -20 20 -21 c22 -21 50 -20 83 2 13 9 11 14 -13 35 -34 30 -35 30 -66 4z"></path><path d="M5337 7717 l-28 -22 25 -24 26 -24 40 18 c23 10 43 22 46 26 4 6 -65 49 -78 49 -2 0 -16 -10 -31 -23z"></path><path d="M3670 7705 c7 -8 17 -15 22 -15 6 0 5 7 -2 15 -7 8 -17 15 -22 15 -6 0 -5 -7 2 -15z"></path><path d="M3644 7649 c-12 -14 -25 -18 -42 -14 -20 5 -22 3 -13 -14 9 -16 6 -26 -16 -51 -17 -21 -32 -30 -45 -27 -27 7 -22 -10 11 -41 l30 -27 -31 -34 -30 -33 -29 28 c-16 15 -29 23 -29 17 0 -5 9 -18 20 -28 23 -20 26 -45 8 -63 -9 -9 -9 -12 -1 -12 7 0 15 5 18 10 8 13 18 13 39 -3 18 -13 18 -15 1 -40 -23 -35 -36 -34 -71 8 -34 41 -55 48 -24 8 56 -74 55 -71 28 -101 -14 -15 -29 -38 -33 -52 -7 -23 -6 -24 9 -11 15 12 19 12 33 -1 14 -15 14 -19 -3 -47 -11 -18 -27 -31 -39 -31 -16 0 -10 -9 27 -41 50 -43 51 -45 13 -93 -12 -16 -18 -17 -27 -8 -19 19 -33 14 -15 -6 22 -24 21 -28 -4 -64 -12 -16 -18 -32 -14 -36 4 -4 10 -1 12 6 3 7 15 25 27 39 23 26 23 26 43 6 11 -11 27 -23 37 -26 24 -10 40 1 26 18 -9 10 -7 20 5 39 20 31 6 35 -20 6 -37 -41 -68 -16 -35 30 19 26 23 28 45 18 35 -16 45 -1 15 23 -17 14 -21 22 -12 26 6 2 12 12 12 20 0 13 -3 13 -25 -1 -24 -16 -27 -16 -55 4 -36 26 -37 30 -6 59 l25 23 29 -21 c44 -31 63 -25 25 8 -18 15 -33 31 -33 35 0 5 12 22 26 39 l26 31 -27 19 -26 20 33 34 33 35 -32 27 c-41 34 -41 45 0 72 17 12 41 33 51 47 l19 25 -25 -6 c-17 -5 -30 -1 -41 11 -14 15 -13 19 8 45 13 15 34 27 46 27 15 0 19 5 15 15 -3 9 6 23 24 37 17 12 30 25 30 30 0 15 -27 8 -46 -13z m-105 -422 c8 -11 5 -19 -14 -37 -24 -22 -27 -23 -42 -7 -16 15 -15 18 2 37 21 23 38 25 54 7z"></path><path d="M6860 7536 c0 -16 28 -42 36 -33 8 7 -14 47 -26 47 -6 0 -10 -6 -10 -14z"></path><path d="M5241 7506 c-38 -41 -5 -62 45 -30 23 16 24 18 8 35 -22 24 -26 24 -53 -5z"></path><path d="M6930 7381 c0 -5 5 -13 10 -16 6 -3 10 -2 10 4 0 5 -4 13 -10 16 -5 3 -10 2 -10 -4z"></path><path d="M5273 7326 c-24 -20 -25 -26 -14 -40 18 -21 30 -20 65 8 27 22 28 26 13 40 -21 21 -31 20 -64 -8z"></path><path d="M5251 7186 c-40 -43 -9 -59 54 -29 42 20 43 26 10 41 -35 16 -38 16 -64 -12z"></path><path d="M6940 7173 c0 -12 9 -27 21 -33 30 -16 31 -9 3 25 -22 28 -24 29 -24 8z"></path><path d="M5326 7146 c-32 -27 -30 -38 14 -56 27 -11 36 -10 80 11 28 13 50 26 50 29 0 7 -90 40 -105 40 -5 -1 -23 -11 -39 -24z"></path><path d="M5231 7066 l-23 -24 25 -17 c23 -15 27 -14 61 6 43 25 44 32 11 47 -37 17 -49 15 -74 -12z"></path><path d="M6952 7071 c2 -14 9 -26 16 -29 17 -5 15 10 -3 34 -15 18 -15 18 -13 -5z"></path><path d="M5247 6948 c-29 -21 -34 -37 -16 -55 9 -9 21 -6 50 10 22 12 39 25 39 28 0 4 -10 13 -23 22 -21 13 -25 13 -50 -5z"></path><path d="M6932 6874 c1 -9 9 -19 16 -22 9 -3 13 2 10 14 -1 9 -9 19 -16 22 -9 3 -13 -2 -10 -14z"></path><path d="M3440 6829 c0 -5 18 -20 40 -34 45 -28 47 -35 24 -71 -13 -18 -22 -23 -38 -18 -19 6 -19 5 -7 -10 11 -13 12 -22 2 -42 -16 -37 -13 -42 9 -15 15 18 26 22 45 17 14 -4 28 -13 31 -21 8 -19 -37 -77 -54 -70 -12 4 -12 2 -3 -9 8 -10 9 -22 1 -42 l-10 -29 18 23 c16 21 21 22 45 11 32 -14 32 -17 7 -49 -19 -25 -20 -25 -50 -7 -36 19 -50 22 -50 7 0 -5 16 -16 35 -24 28 -12 35 -20 35 -43 0 -25 1 -26 17 -11 14 15 19 15 44 2 28 -14 28 -14 11 -44 -19 -34 -26 -36 -66 -15 -42 22 -43 12 -1 -16 34 -24 36 -29 18 -75 -2 -7 10 -22 26 -34 21 -14 31 -30 31 -47 0 -25 1 -25 19 -9 18 16 21 16 51 1 30 -15 31 -18 17 -38 -17 -25 -27 -25 -79 -3 -51 22 -48 13 7 -20 25 -14 45 -30 45 -35 0 -4 6 -6 14 -3 8 3 28 -2 45 -10 28 -15 29 -19 19 -41 -6 -14 -15 -25 -20 -25 -18 0 4 -21 44 -41 30 -15 38 -25 33 -37 -5 -14 -4 -15 6 -4 7 6 21 12 31 12 20 0 22 8 9 29 -5 7 -14 11 -20 7 -8 -6 -63 15 -80 30 -3 2 8 17 23 33 33 35 29 46 -21 56 -54 10 -56 13 -28 47 20 24 23 33 14 44 -6 8 -18 14 -26 14 -8 0 -23 5 -34 11 -19 10 -19 10 2 41 27 38 18 57 -35 72 l-38 11 31 42 c37 51 38 63 9 63 -40 0 -68 12 -68 28 0 8 11 30 26 49 14 18 24 33 22 34 -2 0 -10 2 -19 4 -67 13 -71 23 -34 77 14 20 25 39 25 41 0 3 -18 12 -40 21 -22 9 -40 20 -40 25 0 5 16 26 35 46 31 34 54 75 41 75 -3 0 -16 -5 -30 -11 -21 -10 -32 -7 -70 14 -25 14 -46 21 -46 16z m195 -563 c19 -14 19 -15 1 -35 -32 -36 -73 -21 -62 23 7 29 31 34 61 12z"></path><path d="M5228 6826 c-23 -17 -23 -29 1 -50 17 -16 21 -16 56 5 l38 23 -23 18 c-26 21 -48 22 -72 4z"></path><path d="M5311 6761 c-34 -28 -34 -29 -13 -40 31 -16 48 -14 93 15 45 28 43 38 -11 48 -29 4 -41 0 -69 -23z"></path><path d="M6139 6723 c-61 -65 -66 -79 -12 -33 29 25 52 51 53 58 0 17 -2 16 -41 -25z"></path><path d="M6940 6745 c0 -14 24 -54 31 -50 8 6 -12 55 -23 55 -5 0 -8 -2 -8 -5z"></path><path d="M5223 6693 c-30 -12 -11 -40 50 -76 35 -20 71 -37 80 -37 20 0 67 21 67 30 0 12 -98 49 -117 44 -12 -3 -21 3 -28 18 -10 23 -29 31 -52 21z"></path><path d="M6900 6600 c6 -11 15 -18 21 -14 6 4 6 11 -2 20 -17 21 -31 17 -19 -6z"></path><path d="M6844 6526 c-4 -11 0 -24 10 -34 15 -15 16 -15 16 3 0 11 -4 27 -10 35 -8 12 -10 12 -16 -4z"></path><path d="M5210 6425 c-36 -39 -14 -52 41 -25 40 21 42 23 24 36 -26 20 -38 18 -65 -11z"></path><path d="M6840 6391 c0 -6 5 -13 10 -16 6 -3 10 1 10 9 0 9 -4 16 -10 16 -5 0 -10 -4 -10 -9z"></path><path d="M6800 6330 c0 -5 5 -10 10 -10 6 0 10 5 10 10 0 6 -4 10 -10 10 -5 0 -10 -4 -10 -10z"></path><path d="M6685 6130 c-8 -13 14 -42 25 -35 10 6 1 45 -11 45 -4 0 -11 -5 -14 -10z"></path><path d="M6650 6066 c0 -9 5 -16 10 -16 6 0 10 4 10 9 0 6 -4 13 -10 16 -5 3 -10 -1 -10 -9z"></path><path d="M6567 5934 c-11 -11 -8 -54 3 -54 6 0 13 6 16 14 7 17 -9 50 -19 40z"></path><path d="M3760 5854 c0 -11 92 -54 128 -60 49 -8 51 0 15 40 -24 28 -26 29 -39 12 -12 -17 -16 -18 -59 -4 -25 9 -45 14 -45 12z"></path><path d="M3923 5750 c-3 -12 -14 -20 -27 -20 -19 -1 -19 -2 -4 -13 9 -7 31 -20 48 -29 27 -15 29 -20 20 -38 -8 -15 -17 -19 -33 -15 -20 6 -21 5 -4 -8 9 -8 17 -19 17 -25 0 -6 7 -9 15 -6 20 8 66 -22 59 -39 -5 -14 44 -47 70 -47 30 0 16 18 -21 27 -38 10 -40 13 -28 46 6 13 -1 21 -29 32 -42 18 -44 27 -14 47 19 13 21 18 10 30 -7 9 -26 18 -43 22 -26 5 -29 8 -19 25 13 25 13 31 -1 31 -6 0 -13 -9 -16 -20z"></path><path d="M5212 5748 c-17 -17 -15 -26 9 -38 16 -9 26 -8 46 6 25 16 26 17 8 30 -23 17 -47 18 -63 2z"></path><path d="M5210 5631 c-20 -16 -22 -21 -11 -35 18 -22 31 -20 66 8 33 27 32 31 -5 40 -16 4 -33 0 -50 -13z"></path><path d="M5211 5521 l-24 -18 26 -17 c24 -16 27 -16 51 -1 32 22 33 29 1 43 -31 14 -25 15 -54 -7z"></path><path d="M4879 5402 c19 -15 42 -32 50 -39 14 -10 14 -13 -3 -32 -16 -17 -16 -21 -4 -21 9 0 21 6 28 14 9 12 17 13 36 4 29 -13 30 -28 5 -59 l-18 -22 -37 22 c-55 35 -52 21 5 -19 93 -66 95 -68 82 -81 -9 -9 -20 -7 -47 9 -44 26 -48 12 -6 -18 25 -18 29 -25 19 -36 -25 -31 0 -22 34 11 45 44 46 60 7 80 -16 9 -30 20 -30 25 0 5 14 25 31 45 17 19 29 41 26 48 -2 6 -36 23 -73 36 -38 13 -81 32 -96 42 -40 29 -47 22 -9 -9z"></path><path d="M5221 5306 l-22 -24 30 -21 30 -21 45 21 45 22 -51 24 c-27 13 -51 23 -52 23 -1 0 -13 -11 -25 -24z"></path><path d="M5648 5268 c-16 -5 -28 -13 -28 -17 0 -11 49 -1 56 11 9 15 1 16 -28 6z"></path><path d="M5247 5104 c-51 -27 -28 -52 27 -29 41 17 43 21 18 34 -12 6 -26 5 -45 -5z"></path><path d="M5313 5067 c-18 -12 -33 -24 -33 -27 0 -6 58 -40 69 -40 4 0 15 14 25 32 18 30 18 32 1 45 -23 16 -23 16 -62 -10z"></path><path d="M5125 4765 c4 -60 8 -130 9 -155 4 -80 6 -90 16 -90 13 0 13 211 0 281 -6 29 -15 58 -21 64 -8 7 -9 -20 -4 -100z"></path><path d="M5197 4863 c-6 -11 10 -271 18 -305 4 -16 10 -28 14 -28 22 0 31 31 31 102 0 45 4 78 10 78 6 0 10 -33 10 -79 0 -60 4 -84 16 -96 9 -9 21 -14 28 -12 12 4 33 194 32 287 -1 52 -2 55 -28 58 -26 3 -28 1 -28 -35 0 -48 -24 -86 -40 -63 -5 8 -12 34 -16 58 -5 32 -11 42 -25 42 -10 0 -20 -3 -22 -7z"></path><path d="M5017 4846 c-3 -8 7 -57 23 -107 20 -63 30 -113 30 -156 0 -48 4 -65 15 -70 9 -3 19 -3 22 1 12 12 -16 181 -43 257 -28 82 -38 98 -47 75z"></path><path d="M5400 4808 c-15 -73 -30 -183 -33 -247 -2 -48 0 -55 21 -62 16 -6 24 -5 26 4 13 44 60 269 63 303 4 36 2 42 -19 47 -41 12 -46 8 -58 -45z"></path><path d="M4940 4831 c0 -10 7 -38 15 -62 9 -24 23 -84 31 -134 18 -108 23 -125 34 -125 19 0 19 39 -1 134 -28 129 -79 251 -79 187z"></path><path d="M4860 4742 c0 -6 5 -14 10 -17 6 -3 10 -23 10 -43 0 -21 7 -62 16 -92 8 -30 18 -67 21 -82 6 -30 10 -33 33 -18 12 7 12 16 1 62 -19 73 -60 175 -77 189 -9 7 -14 8 -14 1z"></path><path d="M4845 4500 c4 -36 9 -67 11 -69 3 -3 12 3 21 12 15 15 15 19 -2 59 -30 69 -38 69 -30 -2z"></path><path d="M5060 4480 c-74 -6 -108 -18 -142 -48 -43 -37 -7 -58 127 -71 172 -17 375 17 375 63 0 55 -133 76 -360 56z"></path><path d="M4630 3535 c0 -16 7 -28 18 -31 9 -2 39 -16 66 -30 53 -28 74 -24 36 7 -59 48 -104 79 -112 79 -4 0 -8 -11 -8 -25z"></path><path d="M4095 3612 c-16 -16 -2 -32 27 -32 30 0 31 -1 12 -14 -15 -12 -17 -18 -8 -33 18 -29 52 -28 66 2 10 21 9 29 -5 42 -18 18 -83 43 -92 35z"></path><path d="M4080 3544 c0 -3 5 -14 10 -25 16 -28 30 -23 17 6 -11 22 -27 34 -27 19z"></path><path d="M4221 3534 c0 -11 3 -14 6 -6 3 7 2 16 -1 19 -3 4 -6 -2 -5 -13z"></path><path d="M3968 2314 c-53 -28 -89 -134 -63 -184 21 -41 53 -60 102 -60 59 0 90 14 113 52 34 56 23 127 -28 181 -30 31 -79 36 -124 11z m99 -30 c2 -6 -9 -11 -26 -11 -37 0 -79 -27 -91 -59 -10 -26 -3 -81 11 -90 5 -3 9 -13 9 -22 0 -12 -6 -7 -20 13 -23 34 -26 88 -7 125 22 44 113 76 124 44z m28 -14 c3 -5 1 -10 -4 -10 -6 0 -11 5 -11 10 0 6 2 10 4 10 3 0 8 -4 11 -10z"></path><path d="M5666 2331 c-3 -4 -5 -24 -4 -44 1 -31 5 -37 29 -42 32 -7 89 18 89 40 0 34 -97 74 -114 46z m89 -31 c4 -6 -5 -10 -19 -10 -16 0 -26 -6 -26 -15 0 -8 -4 -15 -10 -15 -11 0 -14 33 -3 43 10 11 51 8 58 -3z"></path><path d="M4138 1633 c-2 -5 -4 -24 -3 -43 0 -32 3 -35 31 -38 56 -5 78 42 36 76 -17 13 -59 16 -64 5z"></path><path d="M5150 1563 c-8 -21 -16 -41 -18 -45 -4 -9 62 -11 70 -2 7 6 -22 84 -32 84 -3 0 -12 -17 -20 -37z"></path><path d="M5919 1607 c-28 -19 -35 -30 -37 -64 -3 -35 1 -44 28 -67 43 -36 83 -34 122 4 26 27 30 36 25 67 -7 41 -48 82 -83 83 -12 0 -36 -10 -55 -23z"></path></g></svg>