<svg xmlns="http://www.w3.org/2000/svg" width="48.000000pt" height="48.000000pt" viewBox="0 0 48.000000 48.000000" preserveAspectRatio="xMidYMid meet"><metadata>
Created by potrace 1.15, written by Peter Selinger 2001-2017
</metadata><g transform="translate(0.000000,48.000000) scale(0.100000,-0.100000)" fill="#000000" stroke="none"><path d="M188 423 c-9 -10 -43 -73 -77 -140 -69 -138 -77 -184 -38 -221 31 -30 104 -30 141 -1 l26 20 26 -20 c38 -30 113 -29 142 2 37 39 29 84 -39 220 -74 148 -81 157 -129 157 -23 0 -43 -7 -52 -17z m139 -148 c62 -120 73 -161 51 -183 -16 -16 -59 -15 -85 3 -21 15 -21 15 -2 52 23 46 24 100 2 125 -20 23 -80 24 -105 1 -25 -22 -24 -87 2 -129 l21 -32 -23 -16 c-27 -19 -69 -21 -86 -4 -22 22 -13 57 44 171 67 133 71 139 98 135 16 -2 37 -34 83 -123z"></path></g></svg>